<svg id="svg" version="1.1" xmlns="http://www.w3.org/2000/svg" xmlns:xlink="http://www.w3.org/1999/xlink" width="400" height="400" viewBox="0, 0, 400,400"><g id="svgg"><path id="path0" d="M192.000 33.625 C 161.518 35.305,132.495 44.819,108.329 61.052 C 48.667 101.131,21.320 171.795,38.457 241.600 C 40.010 247.925,40.793 249.983,41.735 250.218 C 43.538 250.668,162.546 250.171,164.200 249.706 C 165.080 249.459,167.303 248.955,169.141 248.586 C 173.338 247.743,177.874 246.295,181.075 244.775 C 182.436 244.129,183.661 243.600,183.797 243.600 C 184.364 243.600,189.158 240.096,191.154 238.222 C 202.582 227.496,209.284 204.976,204.167 194.499 C 199.632 185.216,191.269 183.425,153.600 183.671 C 131.624 183.814,131.667 183.819,127.548 180.964 C 121.168 176.543,125.847 162.628,135.176 158.281 C 141.335 155.411,140.610 155.460,179.865 155.306 C 210.233 155.187,215.197 155.086,215.615 154.581 C 215.883 154.259,216.996 150.891,218.090 147.098 C 220.770 137.796,221.155 136.175,220.815 135.625 C 220.402 134.956,146.137 135.274,141.000 135.967 C 117.576 139.127,105.665 148.287,99.108 168.181 C 93.599 184.896,95.710 193.837,106.400 199.062 C 113.806 202.682,117.690 203.136,143.750 203.423 C 176.678 203.785,178.834 204.574,177.028 215.600 C 175.719 223.595,171.721 227.564,162.800 229.729 C 158.784 230.703,60.539 231.331,58.787 230.393 C 54.406 228.048,53.525 191.020,57.410 172.520 C 58.855 165.638,59.627 162.525,60.862 158.600 C 61.278 157.280,61.806 155.570,62.037 154.800 C 62.526 153.170,63.406 150.742,65.225 146.000 C 66.838 141.795,72.538 130.304,74.749 126.800 C 75.651 125.370,76.686 123.660,77.049 123.000 C 85.060 108.416,107.288 86.289,123.656 76.605 C 124.395 76.167,125.810 75.310,126.800 74.700 C 134.476 69.969,147.438 64.269,157.400 61.244 C 166.861 58.371,174.155 56.849,184.800 55.523 C 190.375 54.829,211.262 54.832,216.400 55.527 C 222.427 56.343,230.074 57.577,231.600 57.980 C 232.370 58.183,233.900 58.562,235.000 58.821 C 246.763 61.592,263.343 68.271,273.400 74.290 C 288.637 83.409,300.624 93.428,311.114 105.815 C 313.156 108.227,315.068 110.470,315.362 110.800 C 316.465 112.038,322.488 120.609,323.491 122.369 C 324.066 123.376,324.749 124.470,325.010 124.800 C 325.271 125.130,326.166 126.660,326.999 128.200 C 327.832 129.740,329.220 132.306,330.083 133.901 C 333.836 140.842,339.227 154.562,340.807 161.200 C 340.991 161.970,341.510 163.950,341.962 165.600 C 342.950 169.214,344.533 177.837,345.266 183.600 C 345.987 189.269,345.992 211.946,345.273 217.400 C 344.532 223.025,343.301 230.005,342.347 234.000 C 341.467 237.680,341.483 237.625,339.393 244.381 C 337.484 250.556,336.520 250.000,349.139 250.000 L 359.903 250.000 360.341 248.900 C 362.325 243.915,365.315 229.294,366.866 217.000 C 368.728 202.238,366.969 178.215,362.723 160.400 C 359.348 146.243,350.389 124.343,344.395 115.600 C 344.018 115.050,342.846 113.170,341.791 111.423 C 330.710 93.074,311.489 73.368,293.000 61.400 C 291.020 60.119,288.899 58.729,288.286 58.313 C 286.176 56.878,274.594 50.586,271.600 49.247 C 269.950 48.510,267.506 47.388,266.168 46.753 C 264.831 46.119,263.517 45.600,263.249 45.600 C 262.980 45.600,262.216 45.318,261.550 44.974 C 258.974 43.642,246.543 39.653,240.000 38.059 C 225.387 34.499,206.989 32.799,192.000 33.625 M302.100 135.097 C 303.805 135.172,306.595 135.172,308.300 135.097 C 310.005 135.022,308.610 134.961,305.200 134.961 C 301.790 134.961,300.395 135.022,302.100 135.097 M264.500 202.687 C 265.105 202.778,266.095 202.778,266.700 202.687 C 267.305 202.595,266.810 202.520,265.600 202.520 C 264.390 202.520,263.895 202.595,264.500 202.687 M274.300 202.699 C 276.775 202.769,280.825 202.769,283.300 202.699 C 285.775 202.628,283.750 202.571,278.800 202.571 C 273.850 202.571,271.825 202.628,274.300 202.699 M242.975 224.900 L 241.800 226.200 243.100 225.025 C 243.815 224.379,244.400 223.794,244.400 223.725 C 244.400 223.416,244.070 223.688,242.975 224.900 M302.493 252.400 C 302.493 253.170,302.575 253.485,302.676 253.100 C 302.776 252.715,302.776 252.085,302.676 251.700 C 302.575 251.315,302.493 251.630,302.493 252.400 M331.293 256.400 C 331.293 257.170,331.375 257.485,331.476 257.100 C 331.576 256.715,331.576 256.085,331.476 255.700 C 331.375 255.315,331.293 255.630,331.293 256.400 M303.709 271.200 C 303.709 272.190,303.787 272.595,303.882 272.100 C 303.978 271.605,303.978 270.795,303.882 270.300 C 303.787 269.805,303.709 270.210,303.709 271.200 M304.546 287.400 C 304.547 289.600,304.614 290.449,304.695 289.287 C 304.776 288.124,304.776 286.324,304.693 285.287 C 304.611 284.249,304.545 285.200,304.546 287.400 M333.359 291.200 C 333.359 294.390,333.421 295.695,333.497 294.100 C 333.573 292.505,333.573 289.895,333.497 288.300 C 333.421 286.705,333.359 288.010,333.359 291.200 M98.400 304.200 C 99.817 305.630,101.067 306.800,101.177 306.800 C 101.287 306.800,100.217 305.630,98.800 304.200 C 97.383 302.770,96.133 301.600,96.023 301.600 C 95.913 301.600,96.983 302.770,98.400 304.200 M82.200 319.200 C 83.059 320.080,83.852 320.800,83.962 320.800 C 84.072 320.800,83.459 320.080,82.600 319.200 C 81.741 318.320,80.948 317.600,80.838 317.600 C 80.728 317.600,81.341 318.320,82.200 319.200 M207.100 345.882 C 207.595 345.978,208.405 345.978,208.900 345.882 C 209.395 345.787,208.990 345.709,208.000 345.709 C 207.010 345.709,206.605 345.787,207.100 345.882 M194.300 367.882 C 194.795 367.978,195.605 367.978,196.100 367.882 C 196.595 367.787,196.190 367.709,195.200 367.709 C 194.210 367.709,193.805 367.787,194.300 367.882 M204.105 367.887 C 204.714 367.979,205.614 367.977,206.105 367.882 C 206.597 367.787,206.100 367.711,205.000 367.714 C 203.900 367.717,203.497 367.795,204.105 367.887 " stroke="none" fill="#f55e7c" fill-rule="evenodd"></path><path id="path1" d="M284.951 135.471 C 283.424 136.362,282.481 137.464,277.139 144.600 C 274.834 147.680,268.639 155.960,263.374 163.000 C 258.109 170.040,253.589 176.070,253.331 176.400 C 252.482 177.483,238.215 196.580,237.600 197.455 C 237.270 197.925,234.840 201.161,232.200 204.645 C 229.560 208.129,227.130 211.377,226.800 211.861 C 226.470 212.345,220.012 220.968,212.449 231.022 C 204.886 241.076,198.610 249.639,198.502 250.051 C 198.314 250.771,198.788 250.800,210.766 250.800 C 224.750 250.800,225.253 250.717,226.963 248.131 C 227.520 247.289,229.408 244.530,231.159 242.000 C 232.911 239.470,236.238 234.601,238.552 231.180 C 240.867 227.759,243.148 224.609,243.622 224.180 C 244.911 223.014,299.325 222.738,299.943 223.894 C 300.856 225.599,301.615 233.544,302.802 253.800 C 303.034 257.760,303.392 263.610,303.597 266.800 C 305.315 293.552,304.962 298.126,300.679 304.552 C 293.211 315.758,268.743 331.026,246.000 338.671 C 208.039 351.430,161.006 346.727,128.377 326.907 C 127.374 326.298,125.290 325.045,123.744 324.122 C 105.559 313.259,87.305 294.667,75.442 274.927 C 74.805 273.867,74.036 272.595,73.733 272.100 L 73.182 271.200 61.191 271.200 C 53.343 271.200,49.200 271.340,49.200 271.606 C 49.200 271.830,50.264 274.135,51.565 276.730 C 62.165 297.875,78.928 317.964,98.767 333.295 C 101.989 335.785,113.411 343.600,113.829 343.600 C 113.965 343.600,114.627 343.992,115.300 344.471 C 116.793 345.534,123.451 349.103,127.800 351.171 C 132.392 353.355,135.591 354.800,135.834 354.800 C 135.949 354.800,136.858 355.171,137.853 355.624 C 179.795 374.731,240.726 370.695,283.000 346.011 C 284.540 345.111,286.608 343.902,287.595 343.323 C 290.853 341.413,299.306 335.550,302.984 332.650 C 304.973 331.082,307.679 328.989,308.999 327.999 C 322.210 318.090,330.535 308.147,332.609 299.800 C 333.370 296.739,333.270 279.269,332.438 269.800 C 332.226 267.380,331.846 262.790,331.596 259.600 C 330.886 250.576,328.839 232.423,327.572 223.926 C 327.103 220.777,326.564 217.030,326.375 215.600 C 324.611 202.264,314.980 148.531,312.754 139.600 C 312.562 138.830,312.403 137.727,312.402 137.149 C 312.398 135.358,311.994 135.295,298.800 135.011 C 287.045 134.759,286.116 134.790,284.951 135.471 M291.167 160.820 C 291.405 161.931,291.600 163.305,291.600 163.874 C 291.600 164.442,291.784 166.009,292.008 167.354 C 292.233 168.699,293.036 174.300,293.792 179.800 C 294.548 185.300,295.541 192.473,295.999 195.740 C 296.636 200.287,296.722 201.812,296.366 202.240 C 295.653 203.100,260.079 203.072,259.749 202.211 C 259.552 201.699,261.830 198.110,265.600 192.991 C 266.781 191.387,267.038 191.025,273.262 182.200 C 275.899 178.460,279.119 173.870,280.416 172.000 C 290.538 157.408,290.454 157.496,291.167 160.820 " stroke="none" fill="#f9f9f9" fill-rule="evenodd"></path><path id="path2" d="M175.001 0.279 C 173.242 0.366,171.631 0.609,171.421 0.819 C 171.212 1.028,169.917 1.200,168.544 1.200 C 167.171 1.200,165.936 1.380,165.800 1.600 C 165.664 1.820,164.674 2.000,163.600 2.000 C 162.526 2.000,161.536 2.180,161.400 2.400 C 161.264 2.620,160.364 2.800,159.400 2.800 C 158.436 2.800,157.536 2.980,157.400 3.200 C 157.264 3.420,156.353 3.600,155.376 3.600 C 154.399 3.600,153.600 3.780,153.600 4.000 C 153.600 4.220,152.790 4.400,151.800 4.400 C 150.810 4.400,150.000 4.580,150.000 4.800 C 150.000 5.020,149.370 5.200,148.600 5.200 C 147.830 5.200,147.200 5.380,147.200 5.600 C 147.200 5.820,146.570 6.000,145.800 6.000 C 145.030 6.000,144.400 6.180,144.400 6.400 C 144.400 6.620,143.680 6.800,142.800 6.800 C 141.920 6.800,141.200 6.980,141.200 7.200 C 141.200 7.420,140.660 7.600,140.000 7.600 C 139.340 7.600,138.800 7.780,138.800 8.000 C 138.800 8.220,138.395 8.402,137.900 8.405 C 136.468 8.413,129.291 10.810,126.000 12.379 C 125.670 12.537,124.545 12.915,123.500 13.220 C 122.455 13.525,121.600 13.915,121.600 14.087 C 121.600 14.259,121.240 14.400,120.800 14.400 C 120.360 14.400,120.000 14.580,120.000 14.800 C 120.000 15.020,119.728 15.200,119.395 15.200 C 119.062 15.200,118.477 15.362,118.095 15.559 C 117.713 15.757,115.780 16.700,113.800 17.655 C 111.820 18.611,110.140 19.529,110.067 19.696 C 109.993 19.863,109.588 20.000,109.167 20.000 C 108.745 20.000,108.400 20.180,108.400 20.400 C 108.400 20.620,108.040 20.800,107.600 20.800 C 107.160 20.800,106.800 20.980,106.800 21.200 C 106.800 21.420,106.440 21.600,106.000 21.600 C 105.560 21.600,105.200 21.780,105.200 22.000 C 105.200 22.220,104.964 22.400,104.675 22.400 C 104.387 22.400,103.764 22.760,103.292 23.200 C 102.820 23.640,102.156 24.000,101.817 24.000 C 101.478 24.000,101.200 24.180,101.200 24.400 C 101.200 24.620,100.840 24.800,100.400 24.800 C 99.960 24.800,99.600 24.980,99.600 25.200 C 99.600 25.420,99.371 25.600,99.091 25.600 C 98.811 25.600,97.625 26.230,96.456 27.000 C 95.287 27.770,94.166 28.400,93.965 28.400 C 93.764 28.400,93.600 28.558,93.600 28.751 C 93.600 28.945,93.060 29.327,92.400 29.600 C 91.740 29.873,91.200 30.255,91.200 30.449 C 91.200 30.642,90.975 30.800,90.700 30.800 C 90.425 30.801,89.677 31.251,89.038 31.800 C 88.399 32.350,87.732 32.800,87.556 32.800 C 87.380 32.800,86.786 33.250,86.236 33.800 C 85.686 34.350,84.998 34.800,84.706 34.800 C 84.415 34.800,83.917 35.160,83.600 35.600 C 83.283 36.040,82.820 36.400,82.571 36.400 C 82.322 36.400,81.587 36.895,80.937 37.500 C 80.288 38.105,78.956 39.223,77.978 39.985 C 77.000 40.747,76.140 41.512,76.067 41.685 C 75.993 41.858,75.770 42.000,75.570 42.000 C 75.202 42.000,73.789 43.112,72.228 44.632 C 71.757 45.089,71.023 45.659,70.595 45.899 C 68.344 47.158,48.648 66.808,46.371 70.065 C 45.858 70.799,45.150 71.670,44.798 72.000 C 44.447 72.330,43.628 73.320,42.979 74.200 C 42.331 75.080,41.572 76.041,41.294 76.335 C 41.016 76.629,40.298 77.529,39.698 78.335 C 39.099 79.141,38.292 80.091,37.904 80.447 C 37.517 80.803,37.200 81.271,37.200 81.488 C 37.200 81.704,36.660 82.446,36.000 83.137 C 35.340 83.828,34.800 84.583,34.800 84.815 C 34.800 85.047,34.364 85.672,33.831 86.205 C 33.298 86.738,32.746 87.540,32.604 87.987 C 32.462 88.434,32.200 88.800,32.022 88.800 C 31.843 88.800,31.473 89.340,31.200 90.000 C 30.927 90.660,30.545 91.200,30.351 91.200 C 30.158 91.200,30.000 91.436,30.000 91.725 C 30.000 92.013,29.640 92.636,29.200 93.108 C 28.760 93.580,28.400 94.055,28.400 94.163 C 28.400 94.271,27.883 95.134,27.250 96.080 C 26.618 97.026,25.976 98.205,25.823 98.700 C 25.671 99.195,25.378 99.600,25.173 99.600 C 24.968 99.600,24.800 99.960,24.800 100.400 C 24.800 100.840,24.620 101.200,24.400 101.200 C 24.180 101.200,24.000 101.478,24.000 101.817 C 24.000 102.156,23.640 102.820,23.200 103.292 C 22.760 103.764,22.400 104.387,22.400 104.675 C 22.400 104.964,22.220 105.200,22.000 105.200 C 21.780 105.200,21.600 105.560,21.600 106.000 C 21.600 106.440,21.420 106.800,21.200 106.800 C 20.980 106.800,20.800 107.160,20.800 107.600 C 20.800 108.040,20.620 108.400,20.400 108.400 C 20.180 108.400,20.000 108.745,20.000 109.167 C 20.000 109.588,19.863 109.993,19.696 110.067 C 19.214 110.278,15.993 116.925,15.997 117.700 C 15.999 118.085,15.820 118.400,15.600 118.400 C 15.380 118.400,15.200 118.760,15.200 119.200 C 15.200 119.640,15.020 120.000,14.800 120.000 C 14.580 120.000,14.400 120.360,14.400 120.800 C 14.400 121.240,14.220 121.600,14.000 121.600 C 13.780 121.600,13.600 121.962,13.600 122.405 C 13.600 122.848,13.441 123.523,13.247 123.905 C 13.052 124.287,12.716 125.050,12.500 125.600 C 12.284 126.150,11.920 127.050,11.691 127.600 C 10.042 131.559,8.412 136.670,8.405 137.900 C 8.402 138.395,8.220 138.800,8.000 138.800 C 7.780 138.800,7.600 139.340,7.600 140.000 C 7.600 140.660,7.420 141.200,7.200 141.200 C 6.980 141.200,6.800 141.920,6.800 142.800 C 6.800 143.680,6.620 144.400,6.400 144.400 C 6.180 144.400,6.000 145.030,6.000 145.800 C 6.000 146.570,5.820 147.200,5.600 147.200 C 5.380 147.200,5.200 147.819,5.200 148.576 C 5.200 149.333,5.020 150.064,4.800 150.200 C 4.580 150.336,4.400 151.157,4.400 152.024 C 4.400 152.891,4.220 153.600,4.000 153.600 C 3.780 153.600,3.600 154.500,3.600 155.600 C 3.600 156.700,3.420 157.600,3.200 157.600 C 2.980 157.600,2.800 158.399,2.800 159.376 C 2.800 160.353,2.620 161.264,2.400 161.400 C 2.180 161.536,2.000 162.616,2.000 163.800 C 2.000 164.984,1.820 166.064,1.600 166.200 C 1.380 166.336,1.200 167.592,1.200 168.990 C 1.200 170.669,1.030 171.590,0.700 171.700 C 0.306 171.831,0.200 177.849,0.200 200.000 C 0.200 222.151,0.306 228.169,0.700 228.300 C 1.030 228.410,1.200 229.331,1.200 231.010 C 1.200 232.408,1.380 233.664,1.600 233.800 C 1.820 233.936,2.000 235.016,2.000 236.200 C 2.000 237.384,2.180 238.464,2.400 238.600 C 2.620 238.736,2.800 239.647,2.800 240.624 C 2.800 241.601,2.980 242.400,3.200 242.400 C 3.420 242.400,3.600 243.300,3.600 244.400 C 3.600 245.500,3.780 246.400,4.000 246.400 C 4.220 246.400,4.400 247.109,4.400 247.976 C 4.400 248.843,4.580 249.664,4.800 249.800 C 5.020 249.936,5.200 250.667,5.200 251.424 C 5.200 252.181,5.380 252.800,5.600 252.800 C 5.820 252.800,6.000 253.430,6.000 254.200 C 6.000 254.970,6.180 255.600,6.400 255.600 C 6.620 255.600,6.800 256.219,6.800 256.976 C 6.800 257.733,6.980 258.464,7.200 258.600 C 7.420 258.736,7.600 259.377,7.600 260.024 C 7.600 260.671,7.780 261.200,8.000 261.200 C 8.220 261.200,8.402 261.605,8.405 262.100 C 8.414 263.587,10.988 271.228,12.447 274.095 C 12.641 274.477,12.800 275.062,12.800 275.395 C 12.800 275.728,12.980 276.000,13.200 276.000 C 13.420 276.000,13.600 276.540,13.600 277.200 C 13.600 277.860,13.780 278.400,14.000 278.400 C 14.220 278.400,14.400 278.760,14.400 279.200 C 14.400 279.640,14.580 280.000,14.800 280.000 C 15.020 280.000,15.200 280.360,15.200 280.800 C 15.200 281.240,15.380 281.600,15.600 281.600 C 15.820 281.600,15.999 281.915,15.997 282.300 C 15.993 283.075,19.214 289.722,19.696 289.933 C 19.863 290.007,20.000 290.412,20.000 290.833 C 20.000 291.255,20.180 291.600,20.400 291.600 C 20.620 291.600,20.800 291.960,20.800 292.400 C 20.800 292.840,20.980 293.200,21.200 293.200 C 21.420 293.200,21.600 293.560,21.600 294.000 C 21.600 294.440,21.780 294.800,22.000 294.800 C 22.220 294.800,22.400 295.036,22.400 295.325 C 22.400 295.613,22.760 296.236,23.200 296.708 C 23.640 297.180,24.000 297.844,24.000 298.183 C 24.000 298.522,24.180 298.800,24.400 298.800 C 24.620 298.800,24.800 299.160,24.800 299.600 C 24.800 300.040,24.968 300.400,25.173 300.400 C 25.378 300.400,25.671 300.805,25.823 301.300 C 25.976 301.795,26.618 302.974,27.250 303.920 C 27.883 304.866,28.400 305.783,28.400 305.958 C 28.400 306.133,28.760 306.602,29.200 307.000 C 29.640 307.398,30.000 307.966,30.000 308.262 C 30.000 308.558,30.180 308.800,30.400 308.800 C 30.620 308.800,30.800 309.025,30.801 309.300 C 30.801 309.575,31.341 310.430,32.000 311.200 C 32.659 311.970,33.199 312.785,33.199 313.012 C 33.200 313.238,33.560 313.683,34.000 314.000 C 34.440 314.317,34.800 314.809,34.800 315.092 C 34.800 315.375,35.340 316.172,36.000 316.863 C 36.660 317.554,37.200 318.296,37.200 318.512 C 37.200 318.729,37.524 319.197,37.919 319.553 C 38.314 319.909,39.071 320.830,39.600 321.600 C 40.129 322.370,40.843 323.270,41.185 323.600 C 41.528 323.930,42.338 324.920,42.984 325.800 C 43.630 326.680,44.447 327.670,44.798 328.000 C 45.150 328.330,45.858 329.201,46.371 329.935 C 48.584 333.101,66.808 351.334,70.065 353.641 C 70.799 354.161,71.961 355.130,72.647 355.793 C 73.333 356.457,74.379 357.349,74.972 357.775 C 75.565 358.201,76.384 358.831,76.792 359.175 C 78.891 360.946,79.233 361.200,79.516 361.200 C 79.685 361.200,80.083 361.560,80.400 362.000 C 80.717 362.440,81.207 362.800,81.488 362.800 C 81.770 362.800,82.000 362.980,82.000 363.200 C 82.000 363.420,82.230 363.600,82.512 363.600 C 82.793 363.600,83.283 363.960,83.600 364.400 C 83.917 364.840,84.415 365.200,84.706 365.200 C 84.998 365.200,85.686 365.650,86.236 366.200 C 86.786 366.750,87.380 367.200,87.556 367.200 C 87.732 367.200,88.399 367.650,89.038 368.200 C 89.677 368.749,90.425 369.199,90.700 369.200 C 90.975 369.200,91.200 369.358,91.200 369.551 C 91.200 369.745,91.740 370.127,92.400 370.400 C 93.060 370.673,93.600 371.034,93.600 371.202 C 93.600 371.370,93.915 371.615,94.300 371.747 C 94.685 371.879,96.080 372.697,97.400 373.565 C 98.720 374.433,100.115 375.156,100.500 375.172 C 100.885 375.187,101.200 375.380,101.200 375.600 C 101.200 375.820,101.478 376.000,101.817 376.000 C 102.156 376.000,102.820 376.360,103.292 376.800 C 103.764 377.240,104.387 377.600,104.675 377.600 C 104.964 377.600,105.200 377.780,105.200 378.000 C 105.200 378.220,105.560 378.400,106.000 378.400 C 106.440 378.400,106.800 378.580,106.800 378.800 C 106.800 379.020,107.160 379.200,107.600 379.200 C 108.040 379.200,108.400 379.380,108.400 379.600 C 108.400 379.820,108.745 380.000,109.167 380.000 C 109.588 380.000,109.993 380.137,110.067 380.304 C 110.140 380.471,111.820 381.389,113.800 382.345 C 115.780 383.300,117.713 384.243,118.095 384.441 C 118.477 384.638,119.062 384.800,119.395 384.800 C 119.728 384.800,120.000 384.980,120.000 385.200 C 120.000 385.420,120.360 385.600,120.800 385.600 C 121.240 385.600,121.600 385.741,121.600 385.913 C 121.600 386.085,122.455 386.475,123.500 386.780 C 124.545 387.085,125.670 387.463,126.000 387.621 C 126.330 387.778,127.095 388.108,127.700 388.353 C 128.305 388.599,129.205 388.972,129.700 389.183 C 131.826 390.089,136.897 391.600,137.808 391.600 C 138.354 391.600,138.800 391.780,138.800 392.000 C 138.800 392.220,139.340 392.400,140.000 392.400 C 140.660 392.400,141.200 392.580,141.200 392.800 C 141.200 393.020,141.920 393.200,142.800 393.200 C 143.680 393.200,144.400 393.380,144.400 393.600 C 144.400 393.820,145.030 394.000,145.800 394.000 C 146.570 394.000,147.200 394.180,147.200 394.400 C 147.200 394.620,147.819 394.800,148.576 394.800 C 149.333 394.800,150.064 394.980,150.200 395.200 C 150.336 395.420,151.157 395.600,152.024 395.600 C 152.891 395.600,153.600 395.780,153.600 396.000 C 153.600 396.220,154.399 396.400,155.376 396.400 C 156.353 396.400,157.264 396.580,157.400 396.800 C 157.536 397.020,158.436 397.200,159.400 397.200 C 160.364 397.200,161.264 397.380,161.400 397.600 C 161.536 397.820,162.526 398.000,163.600 398.000 C 164.674 398.000,165.664 398.180,165.800 398.400 C 165.936 398.620,167.171 398.800,168.544 398.800 C 170.007 398.800,171.247 399.007,171.540 399.300 C 171.930 399.690,178.165 399.800,200.000 399.800 C 221.835 399.800,228.070 399.690,228.460 399.300 C 228.753 399.007,229.993 398.800,231.456 398.800 C 232.829 398.800,234.064 398.620,234.200 398.400 C 234.336 398.180,235.326 398.000,236.400 398.000 C 237.474 398.000,238.464 397.820,238.600 397.600 C 238.736 397.380,239.636 397.200,240.600 397.200 C 241.564 397.200,242.464 397.020,242.600 396.800 C 242.736 396.580,243.647 396.400,244.624 396.400 C 245.601 396.400,246.400 396.220,246.400 396.000 C 246.400 395.780,247.109 395.600,247.976 395.600 C 248.843 395.600,249.664 395.420,249.800 395.200 C 249.936 394.980,250.667 394.800,251.424 394.800 C 252.181 394.800,252.800 394.620,252.800 394.400 C 252.800 394.180,253.430 394.000,254.200 394.000 C 254.970 394.000,255.600 393.820,255.600 393.600 C 255.600 393.380,256.320 393.200,257.200 393.200 C 258.080 393.200,258.800 393.020,258.800 392.800 C 258.800 392.580,259.340 392.400,260.000 392.400 C 260.660 392.400,261.200 392.220,261.200 392.000 C 261.200 391.780,261.646 391.600,262.192 391.600 C 263.103 391.600,268.174 390.089,270.300 389.183 C 270.795 388.972,271.695 388.599,272.300 388.353 C 272.905 388.108,273.670 387.778,274.000 387.621 C 274.330 387.463,275.455 387.085,276.500 386.780 C 277.545 386.475,278.400 386.085,278.400 385.913 C 278.400 385.741,278.760 385.600,279.200 385.600 C 279.640 385.600,280.000 385.420,280.000 385.200 C 280.000 384.980,280.272 384.800,280.605 384.800 C 280.938 384.800,281.523 384.643,281.905 384.450 C 284.880 382.952,286.153 382.400,286.638 382.400 C 286.947 382.400,287.200 382.254,287.200 382.075 C 287.200 381.896,287.830 381.502,288.600 381.200 C 289.370 380.898,290.000 380.504,290.000 380.325 C 290.000 380.146,290.360 380.000,290.800 380.000 C 291.240 380.000,291.600 379.820,291.600 379.600 C 291.600 379.380,291.960 379.200,292.400 379.200 C 292.840 379.200,293.200 379.020,293.200 378.800 C 293.200 378.580,293.560 378.400,294.000 378.400 C 294.440 378.400,294.800 378.220,294.800 378.000 C 294.800 377.780,295.036 377.600,295.325 377.600 C 295.613 377.600,296.236 377.240,296.708 376.800 C 297.180 376.360,297.844 376.000,298.183 376.000 C 298.522 376.000,298.800 375.820,298.800 375.600 C 298.800 375.380,299.057 375.200,299.371 375.200 C 300.006 375.200,304.923 372.389,305.133 371.906 C 305.207 371.738,305.439 371.600,305.650 371.600 C 306.098 371.600,308.539 369.938,308.733 369.500 C 308.807 369.335,309.077 369.200,309.333 369.200 C 309.590 369.199,310.323 368.749,310.962 368.200 C 311.601 367.650,312.268 367.200,312.444 367.200 C 312.620 367.200,313.214 366.750,313.764 366.200 C 314.314 365.650,315.002 365.200,315.294 365.200 C 315.585 365.200,316.083 364.840,316.400 364.400 C 316.717 363.960,317.207 363.600,317.488 363.600 C 317.770 363.600,318.000 363.420,318.000 363.200 C 318.000 362.980,318.230 362.800,318.512 362.800 C 318.793 362.800,319.283 362.440,319.600 362.000 C 319.917 361.560,320.315 361.200,320.484 361.200 C 320.767 361.200,321.109 360.946,323.208 359.175 C 323.616 358.831,324.435 358.201,325.028 357.775 C 325.621 357.349,326.667 356.457,327.353 355.793 C 328.039 355.130,329.201 354.161,329.935 353.641 C 333.165 351.354,351.354 333.165,353.641 329.935 C 354.161 329.201,355.175 328.009,355.893 327.287 C 356.612 326.564,357.201 325.844,357.202 325.687 C 357.203 325.529,357.704 324.860,358.315 324.200 C 358.926 323.540,359.861 322.370,360.394 321.600 C 360.926 320.830,361.686 319.909,362.081 319.553 C 362.476 319.197,362.800 318.702,362.800 318.453 C 362.800 318.204,362.980 318.000,363.200 318.000 C 363.420 318.000,363.600 317.770,363.600 317.488 C 363.600 317.207,363.960 316.717,364.400 316.400 C 364.840 316.083,365.200 315.543,365.200 315.200 C 365.200 314.857,365.560 314.317,366.000 314.000 C 366.440 313.683,366.800 313.238,366.801 313.012 C 366.801 312.785,367.341 311.970,368.000 311.200 C 368.659 310.430,369.199 309.575,369.199 309.300 C 369.200 309.025,369.380 308.800,369.600 308.800 C 369.820 308.800,370.000 308.558,370.000 308.262 C 370.000 307.966,370.360 307.398,370.800 307.000 C 371.240 306.602,371.600 306.034,371.600 305.738 C 371.600 305.442,371.742 305.200,371.916 305.200 C 372.090 305.200,372.733 304.213,373.343 303.007 C 373.954 301.801,374.622 300.710,374.827 300.583 C 375.032 300.457,375.200 300.003,375.200 299.576 C 375.200 299.149,375.380 298.800,375.600 298.800 C 375.820 298.800,376.000 298.522,376.000 298.183 C 376.000 297.844,376.360 297.180,376.800 296.708 C 377.240 296.236,377.600 295.613,377.600 295.325 C 377.600 295.036,377.780 294.800,378.000 294.800 C 378.220 294.800,378.400 294.440,378.400 294.000 C 378.400 293.560,378.580 293.200,378.800 293.200 C 379.020 293.200,379.200 292.840,379.200 292.400 C 379.200 291.960,379.380 291.600,379.600 291.600 C 379.820 291.600,380.000 291.240,380.000 290.800 C 380.000 290.360,380.146 290.000,380.325 290.000 C 380.504 290.000,380.898 289.370,381.200 288.600 C 381.502 287.830,381.896 287.200,382.075 287.200 C 382.254 287.200,382.400 286.935,382.400 286.612 C 382.400 286.289,382.760 285.383,383.200 284.600 C 383.640 283.817,384.000 282.821,384.000 282.388 C 384.000 281.955,384.180 281.600,384.400 281.600 C 384.620 281.600,384.800 281.240,384.800 280.800 C 384.800 280.360,384.980 280.000,385.200 280.000 C 385.420 280.000,385.600 279.640,385.600 279.200 C 385.600 278.760,385.780 278.400,386.000 278.400 C 386.220 278.400,386.400 277.860,386.400 277.200 C 386.400 276.540,386.580 276.000,386.800 276.000 C 387.020 276.000,387.200 275.728,387.200 275.395 C 387.200 275.062,387.359 274.477,387.553 274.095 C 387.748 273.713,388.108 272.905,388.353 272.300 C 388.599 271.695,388.972 270.795,389.183 270.300 C 390.089 268.174,391.600 263.103,391.600 262.192 C 391.600 261.646,391.780 261.200,392.000 261.200 C 392.220 261.200,392.400 260.671,392.400 260.024 C 392.400 259.377,392.580 258.736,392.800 258.600 C 393.020 258.464,393.200 257.733,393.200 256.976 C 393.200 256.219,393.380 255.600,393.600 255.600 C 393.820 255.600,394.000 254.970,394.000 254.200 C 394.000 253.430,394.180 252.800,394.400 252.800 C 394.620 252.800,394.800 252.181,394.800 251.424 C 394.800 250.667,394.980 249.936,395.200 249.800 C 395.420 249.664,395.600 248.843,395.600 247.976 C 395.600 247.109,395.780 246.400,396.000 246.400 C 396.220 246.400,396.400 245.500,396.400 244.400 C 396.400 243.300,396.580 242.400,396.800 242.400 C 397.020 242.400,397.200 241.601,397.200 240.624 C 397.200 239.647,397.380 238.736,397.600 238.600 C 397.820 238.464,398.000 237.384,398.000 236.200 C 398.000 235.016,398.180 233.936,398.400 233.800 C 398.620 233.664,398.800 232.408,398.800 231.010 C 398.800 229.331,398.970 228.410,399.300 228.300 C 399.694 228.169,399.800 222.151,399.800 200.000 C 399.800 177.849,399.694 171.831,399.300 171.700 C 398.970 171.590,398.800 170.669,398.800 168.990 C 398.800 167.592,398.620 166.336,398.400 166.200 C 398.180 166.064,398.000 164.984,398.000 163.800 C 398.000 162.616,397.820 161.536,397.600 161.400 C 397.380 161.264,397.200 160.353,397.200 159.376 C 397.200 158.399,397.020 157.600,396.800 157.600 C 396.580 157.600,396.400 156.700,396.400 155.600 C 396.400 154.500,396.220 153.600,396.000 153.600 C 395.780 153.600,395.600 152.891,395.600 152.024 C 395.600 151.157,395.420 150.336,395.200 150.200 C 394.980 150.064,394.800 149.333,394.800 148.576 C 394.800 147.819,394.620 147.200,394.400 147.200 C 394.180 147.200,394.000 146.570,394.000 145.800 C 394.000 145.030,393.820 144.400,393.600 144.400 C 393.380 144.400,393.200 143.781,393.200 143.024 C 393.200 142.267,393.020 141.536,392.800 141.400 C 392.580 141.264,392.400 140.623,392.400 139.976 C 392.400 139.329,392.220 138.800,392.000 138.800 C 391.780 138.800,391.600 138.390,391.600 137.889 C 391.600 136.986,389.973 131.524,389.131 129.600 C 388.890 129.050,388.516 128.150,388.300 127.600 C 388.084 127.050,387.748 126.287,387.553 125.905 C 387.359 125.523,387.200 124.938,387.200 124.605 C 387.200 124.272,387.020 124.000,386.800 124.000 C 386.580 124.000,386.400 123.460,386.400 122.800 C 386.400 122.140,386.220 121.600,386.000 121.600 C 385.780 121.600,385.600 121.240,385.600 120.800 C 385.600 120.360,385.420 120.000,385.200 120.000 C 384.980 120.000,384.800 119.640,384.800 119.200 C 384.800 118.760,384.620 118.400,384.400 118.400 C 384.180 118.400,384.001 118.085,384.003 117.700 C 384.007 116.925,380.786 110.278,380.304 110.067 C 380.137 109.993,380.000 109.588,380.000 109.167 C 380.000 108.745,379.820 108.400,379.600 108.400 C 379.380 108.400,379.200 108.040,379.200 107.600 C 379.200 107.160,379.020 106.800,378.800 106.800 C 378.580 106.800,378.400 106.440,378.400 106.000 C 378.400 105.560,378.220 105.200,378.000 105.200 C 377.780 105.200,377.600 104.964,377.600 104.675 C 377.600 104.387,377.240 103.764,376.800 103.292 C 376.360 102.820,376.000 102.156,376.000 101.817 C 376.000 101.478,375.820 101.200,375.600 101.200 C 375.380 101.200,375.200 100.862,375.200 100.449 C 375.200 100.036,374.930 99.474,374.600 99.200 C 374.270 98.926,374.000 98.525,374.000 98.309 C 374.000 98.093,373.460 97.116,372.800 96.138 C 372.140 95.160,371.600 94.271,371.600 94.163 C 371.600 94.055,371.240 93.580,370.800 93.108 C 370.360 92.636,370.000 92.013,370.000 91.725 C 370.000 91.436,369.820 91.200,369.600 91.200 C 369.380 91.200,369.200 90.975,369.199 90.700 C 369.199 90.425,368.659 89.570,368.000 88.800 C 367.341 88.030,366.801 87.215,366.801 86.988 C 366.800 86.762,366.440 86.317,366.000 86.000 C 365.560 85.683,365.200 85.143,365.200 84.800 C 365.200 84.457,364.840 83.917,364.400 83.600 C 363.960 83.283,363.600 82.793,363.600 82.512 C 363.600 82.230,363.420 82.000,363.200 82.000 C 362.980 82.000,362.800 81.796,362.800 81.547 C 362.800 81.298,362.476 80.803,362.081 80.447 C 361.686 80.091,360.926 79.170,360.394 78.400 C 359.861 77.630,358.926 76.460,358.315 75.800 C 357.704 75.140,357.203 74.471,357.202 74.313 C 357.201 74.156,356.612 73.436,355.893 72.713 C 355.175 71.991,354.161 70.799,353.641 70.065 C 351.351 66.831,333.154 48.636,329.935 46.361 C 329.201 45.842,328.221 45.053,327.759 44.609 C 326.337 43.241,324.807 42.000,324.544 42.000 C 324.406 42.000,324.003 41.676,323.647 41.281 C 323.291 40.886,322.370 40.129,321.600 39.600 C 320.830 39.071,319.909 38.314,319.553 37.919 C 319.197 37.524,318.729 37.200,318.512 37.200 C 318.296 37.200,317.554 36.660,316.863 36.000 C 316.172 35.340,315.417 34.800,315.185 34.800 C 314.953 34.800,314.314 34.350,313.764 33.800 C 313.214 33.250,312.620 32.800,312.444 32.800 C 312.268 32.800,311.601 32.350,310.962 31.800 C 310.323 31.251,309.590 30.801,309.333 30.800 C 309.077 30.800,308.807 30.665,308.733 30.500 C 308.590 30.177,306.151 28.400,305.851 28.400 C 305.751 28.400,304.713 27.770,303.544 27.000 C 302.375 26.230,301.189 25.600,300.909 25.600 C 300.629 25.600,300.400 25.420,300.400 25.200 C 300.400 24.980,300.040 24.800,299.600 24.800 C 299.160 24.800,298.800 24.620,298.800 24.400 C 298.800 24.180,298.522 24.000,298.183 24.000 C 297.844 24.000,297.180 23.640,296.708 23.200 C 296.236 22.760,295.613 22.400,295.325 22.400 C 295.036 22.400,294.800 22.220,294.800 22.000 C 294.800 21.780,294.440 21.600,294.000 21.600 C 293.560 21.600,293.200 21.420,293.200 21.200 C 293.200 20.980,292.840 20.800,292.400 20.800 C 291.960 20.800,291.600 20.620,291.600 20.400 C 291.600 20.180,291.255 20.000,290.833 20.000 C 290.412 20.000,290.007 19.863,289.933 19.696 C 289.860 19.529,288.180 18.611,286.200 17.655 C 284.220 16.700,282.287 15.757,281.905 15.559 C 281.523 15.362,280.938 15.200,280.605 15.200 C 280.272 15.200,280.000 15.020,280.000 14.800 C 280.000 14.580,279.640 14.400,279.200 14.400 C 278.760 14.400,278.400 14.259,278.400 14.087 C 278.400 13.915,277.545 13.525,276.500 13.220 C 275.455 12.915,274.330 12.537,274.000 12.379 C 273.670 12.222,272.905 11.892,272.300 11.647 C 271.695 11.401,270.795 11.027,270.300 10.816 C 268.368 9.991,262.975 8.400,262.111 8.400 C 261.610 8.400,261.200 8.220,261.200 8.000 C 261.200 7.780,260.660 7.600,260.000 7.600 C 259.340 7.600,258.800 7.420,258.800 7.200 C 258.800 6.980,258.080 6.800,257.200 6.800 C 256.320 6.800,255.600 6.620,255.600 6.400 C 255.600 6.180,254.970 6.000,254.200 6.000 C 253.430 6.000,252.800 5.820,252.800 5.600 C 252.800 5.380,252.181 5.200,251.424 5.200 C 250.667 5.200,249.936 5.020,249.800 4.800 C 249.664 4.580,248.843 4.400,247.976 4.400 C 247.109 4.400,246.400 4.220,246.400 4.000 C 246.400 3.780,245.601 3.600,244.624 3.600 C 243.647 3.600,242.736 3.420,242.600 3.200 C 242.464 2.980,241.564 2.800,240.600 2.800 C 239.636 2.800,238.736 2.620,238.600 2.400 C 238.464 2.180,237.474 2.000,236.400 2.000 C 235.326 2.000,234.336 1.820,234.200 1.600 C 234.064 1.380,232.829 1.200,231.456 1.200 C 229.993 1.200,228.753 0.993,228.460 0.700 C 227.972 0.212,183.474 -0.139,175.001 0.279 M214.800 32.829 C 221.686 33.552,228.571 34.446,230.400 34.854 C 231.390 35.075,234.689 35.781,237.730 36.424 C 244.648 37.886,249.427 39.283,256.800 42.000 C 258.670 42.689,261.010 43.520,262.000 43.847 C 264.192 44.570,264.341 44.634,269.682 47.168 C 272.037 48.286,274.085 49.200,274.233 49.200 C 275.099 49.200,285.828 55.398,292.062 59.500 C 294.486 61.095,296.552 62.400,296.652 62.400 C 296.951 62.400,301.178 65.575,304.600 68.371 C 316.073 77.743,321.149 82.736,331.058 94.391 C 333.886 97.718,343.200 110.764,343.200 111.399 C 343.200 111.516,343.803 112.555,344.540 113.706 C 346.747 117.157,349.916 122.916,351.405 126.183 C 352.174 127.870,353.351 130.355,354.021 131.705 C 356.947 137.604,361.812 151.600,363.578 159.200 C 365.958 169.446,366.604 173.017,368.065 184.000 C 370.137 199.588,367.466 229.175,362.412 246.599 C 361.965 248.138,361.600 249.430,361.600 249.470 C 361.600 250.791,338.205 251.645,336.931 250.371 C 336.626 250.066,336.882 248.768,337.818 245.871 C 339.113 241.866,340.605 236.327,341.556 232.000 C 341.822 230.790,342.197 229.080,342.389 228.200 C 342.581 227.320,342.948 225.250,343.203 223.600 C 343.459 221.950,343.821 219.790,344.008 218.800 C 345.374 211.554,345.374 190.809,344.008 182.400 C 343.811 181.190,343.442 178.850,343.187 177.200 C 342.684 173.938,342.283 172.076,340.395 164.233 C 339.075 158.746,337.650 154.199,335.622 148.994 C 334.123 145.149,331.292 138.510,330.677 137.400 C 330.434 136.960,329.760 135.700,329.180 134.600 C 325.006 126.686,322.988 123.381,318.322 116.811 C 307.982 102.251,293.982 88.798,279.400 79.410 C 277.420 78.136,275.170 76.688,274.400 76.194 C 263.041 68.903,244.127 61.704,227.800 58.458 C 187.135 50.373,143.982 60.877,111.000 86.889 C 105.205 91.459,94.018 102.082,91.455 105.448 C 90.765 106.354,88.841 108.784,87.180 110.848 C 82.271 116.948,81.671 117.777,78.310 123.108 C 71.397 134.069,64.833 148.605,61.468 160.400 C 55.045 182.916,53.992 206.607,58.476 227.700 L 58.880 229.600 107.411 229.600 C 138.820 229.600,157.046 229.453,159.071 229.183 C 170.275 227.690,175.477 222.952,175.920 213.836 C 176.340 205.213,174.964 204.802,145.656 204.797 C 121.965 204.792,117.613 204.400,109.400 201.531 C 94.798 196.429,91.600 186.337,98.404 166.829 C 101.880 156.860,105.675 150.858,111.600 145.952 C 119.315 139.566,129.990 135.934,145.542 134.407 C 150.618 133.908,221.163 133.862,221.944 134.357 C 222.636 134.795,222.311 136.857,220.809 141.552 C 220.202 143.448,219.305 146.620,218.816 148.600 C 217.390 154.364,216.882 155.493,215.495 155.977 C 214.677 156.262,202.949 156.400,179.560 156.400 C 142.935 156.400,144.012 156.352,138.600 158.208 C 130.417 161.014,123.373 171.242,125.756 176.856 C 128.090 182.354,129.327 182.584,156.800 182.632 C 181.865 182.676,185.541 182.849,191.332 184.251 C 205.614 187.709,209.842 197.039,205.367 215.220 C 204.365 219.290,203.606 221.190,200.419 227.600 C 193.536 241.446,181.526 248.660,161.462 251.001 C 156.206 251.614,42.182 251.952,40.637 251.359 C 39.272 250.835,35.339 234.860,33.817 223.655 C 31.163 204.121,31.715 186.953,35.638 167.061 C 36.499 162.695,37.664 157.565,38.228 155.661 C 38.792 153.758,39.513 151.240,39.830 150.067 C 40.147 148.894,40.601 147.572,40.838 147.128 C 41.076 146.685,41.868 144.585,42.600 142.461 C 44.517 136.894,45.224 135.189,48.166 129.026 C 49.615 125.992,50.800 123.462,50.800 123.405 C 50.800 123.312,56.097 114.130,58.419 110.200 C 58.939 109.320,59.473 108.510,59.606 108.400 C 59.739 108.290,60.865 106.670,62.107 104.800 C 79.732 78.278,109.880 54.711,141.000 43.132 C 152.373 38.900,156.381 37.746,167.000 35.647 C 174.784 34.108,177.501 33.696,185.800 32.798 C 192.901 32.029,207.328 32.045,214.800 32.829 M312.046 134.178 C 312.813 134.494,313.600 136.084,313.600 137.319 C 313.600 138.065,315.105 145.985,316.465 152.400 C 317.021 155.020,317.587 157.919,317.990 160.200 C 318.184 161.300,318.624 163.730,318.968 165.600 C 319.311 167.470,319.955 171.250,320.398 174.000 C 321.305 179.638,321.884 182.731,322.428 184.846 C 322.633 185.642,322.800 186.911,322.800 187.666 C 322.800 188.422,322.963 189.211,323.163 189.420 C 323.363 189.629,323.623 190.700,323.742 191.800 C 323.860 192.900,324.147 194.835,324.378 196.100 C 325.383 201.579,325.643 203.169,326.001 206.000 C 326.209 207.650,326.931 212.690,327.604 217.200 C 328.723 224.691,329.709 231.716,330.830 240.200 C 332.192 250.497,333.847 273.837,334.246 288.353 C 334.527 298.560,333.153 305.108,330.028 308.462 C 329.573 308.951,329.200 309.572,329.200 309.842 C 329.200 310.112,329.058 310.393,328.885 310.467 C 328.712 310.540,327.947 311.410,327.185 312.400 C 325.608 314.450,318.087 322.044,315.992 323.702 C 315.227 324.309,313.520 325.653,312.200 326.690 C 310.880 327.727,309.601 328.761,309.359 328.988 C 309.116 329.214,308.036 330.082,306.959 330.916 C 299.169 336.947,297.222 338.400,296.931 338.404 C 296.749 338.406,295.810 339.036,294.844 339.804 C 293.878 340.572,292.946 341.200,292.772 341.200 C 292.599 341.200,292.219 341.432,291.929 341.716 C 291.433 342.200,288.373 344.076,281.800 347.926 C 280.260 348.828,277.020 350.493,274.600 351.626 C 272.180 352.759,268.940 354.277,267.400 355.000 C 265.860 355.723,263.160 356.797,261.400 357.387 C 259.640 357.977,257.660 358.706,257.000 359.008 C 255.470 359.706,247.442 362.401,245.600 362.834 C 232.911 365.818,228.081 366.705,215.200 368.418 C 211.754 368.876,187.705 368.735,184.000 368.235 C 182.140 367.984,178.787 367.487,174.102 366.766 C 171.310 366.337,168.573 365.821,165.800 365.202 C 164.920 365.005,162.850 364.556,161.200 364.203 C 157.090 363.324,155.868 362.973,149.200 360.760 C 140.754 357.956,140.664 357.925,139.905 357.546 C 139.523 357.356,139.034 357.200,138.817 357.200 C 138.408 357.200,135.797 356.070,131.000 353.815 C 129.460 353.092,127.134 352.023,125.831 351.440 C 118.479 348.153,95.479 333.206,93.658 330.532 C 93.516 330.324,93.020 329.894,92.556 329.577 C 88.320 326.683,72.923 311.186,70.776 307.656 C 70.385 307.014,69.905 306.424,69.709 306.344 C 69.237 306.154,62.651 297.428,61.949 296.063 C 61.648 295.479,61.296 294.910,61.168 294.800 C 60.761 294.450,56.800 288.447,56.800 288.180 C 56.800 288.039,56.461 287.446,56.046 286.862 C 51.875 280.992,47.481 271.479,48.480 270.480 C 49.170 269.790,72.748 269.820,73.600 270.513 C 74.273 271.059,75.083 272.268,79.022 278.600 C 80.528 281.020,82.409 283.810,83.202 284.800 C 83.996 285.790,85.002 287.181,85.438 287.891 C 87.502 291.255,103.394 308.168,105.961 309.732 C 106.532 310.081,107.630 310.971,108.400 311.712 C 110.096 313.342,119.229 320.188,120.776 320.987 C 121.385 321.302,123.484 322.608,125.441 323.889 C 134.613 329.891,152.193 337.358,163.800 340.181 C 165.340 340.555,167.320 341.038,168.200 341.253 C 173.870 342.638,179.220 343.540,187.400 344.489 C 192.523 345.084,208.659 345.083,213.600 344.488 C 222.799 343.380,226.668 342.719,232.700 341.222 C 233.635 340.990,235.165 340.610,236.100 340.378 C 237.035 340.146,238.520 339.801,239.400 339.612 C 241.783 339.098,248.216 336.964,251.400 335.631 C 252.940 334.986,255.460 333.976,257.000 333.387 C 260.935 331.882,272.886 325.835,274.980 324.290 C 275.211 324.119,277.137 322.859,279.261 321.490 C 286.945 316.535,295.373 309.792,297.803 306.656 C 301.169 302.312,302.033 300.402,303.064 295.024 C 303.714 291.632,303.635 284.267,302.820 272.400 C 302.159 262.767,301.554 252.692,301.391 248.600 C 301.005 238.921,300.074 228.184,299.388 225.500 L 299.107 224.400 272.018 224.400 L 244.929 224.400 243.764 225.700 C 243.124 226.415,242.346 227.492,242.036 228.093 C 241.726 228.695,241.178 229.505,240.819 229.893 C 239.899 230.891,237.600 234.284,237.600 234.646 C 237.600 234.812,237.258 235.320,236.840 235.774 C 236.421 236.228,234.306 239.220,232.140 242.421 C 225.287 252.548,227.627 251.522,211.124 251.637 C 197.934 251.729,196.800 251.651,196.800 250.647 C 196.800 250.109,201.057 244.155,204.230 240.256 C 205.279 238.967,206.823 236.897,207.661 235.656 C 208.499 234.415,210.043 232.312,211.093 230.982 C 212.142 229.652,213.180 228.273,213.400 227.918 C 214.368 226.354,224.350 213.279,225.498 212.071 C 225.774 211.781,226.000 211.389,226.000 211.200 C 226.000 211.011,226.228 210.619,226.507 210.329 C 227.037 209.775,231.364 204.069,232.400 202.557 C 232.730 202.076,235.955 197.748,239.566 192.941 C 243.178 188.133,246.588 183.570,247.145 182.800 C 247.702 182.030,248.308 181.296,248.491 181.169 C 248.675 181.041,249.855 179.486,251.113 177.713 C 253.641 174.148,257.924 168.354,259.180 166.800 C 259.624 166.250,260.391 165.260,260.885 164.600 C 261.379 163.940,261.994 163.180,262.252 162.911 C 262.510 162.641,263.132 161.741,263.634 160.911 C 264.136 160.080,265.380 158.410,266.399 157.200 C 267.417 155.990,268.676 154.370,269.196 153.600 C 274.667 145.495,283.226 134.939,284.981 134.134 C 286.260 133.547,310.608 133.587,312.046 134.178 M286.722 164.794 C 285.335 166.770,283.660 169.211,283.000 170.219 C 282.340 171.226,280.707 173.524,279.371 175.325 C 278.036 177.126,275.836 180.220,274.483 182.200 C 273.130 184.180,270.670 187.690,269.016 190.000 C 264.984 195.631,261.200 201.149,261.200 201.398 C 261.200 201.726,295.138 201.628,295.308 201.300 C 295.652 200.633,294.436 190.198,292.792 179.700 C 292.411 177.273,292.100 175.217,291.232 169.400 C 291.002 167.860,290.713 165.790,290.589 164.800 C 290.017 160.209,289.940 160.208,286.722 164.794 " stroke="none" fill="#040404" fill-rule="evenodd"></path><path id="path3" d="M187.000 33.206 C 162.977 35.548,143.759 41.075,123.800 51.381 C 79.889 74.056,48.006 114.930,37.047 162.600 C 30.648 190.437,31.339 217.557,39.192 246.800 C 40.529 251.779,32.861 251.250,101.161 251.076 C 163.860 250.916,160.626 251.003,169.510 249.236 C 188.719 245.417,200.828 233.042,205.553 212.400 C 208.912 197.723,204.551 188.439,192.788 185.231 C 186.758 183.586,184.857 183.474,158.800 183.224 L 133.400 182.981 130.866 181.998 C 124.460 179.515,123.465 175.015,127.517 166.850 C 130.477 160.887,135.437 157.751,144.200 156.302 C 145.597 156.071,161.106 155.835,181.315 155.738 L 216.031 155.571 216.458 154.485 C 216.987 153.144,220.669 140.575,221.382 137.681 C 222.302 133.946,225.858 134.242,183.410 134.526 C 146.855 134.772,141.993 134.945,135.698 136.223 C 114.962 140.434,104.810 149.159,98.492 168.200 C 92.128 187.379,96.012 197.214,111.751 201.774 C 118.683 203.783,121.710 203.999,143.170 204.013 C 174.637 204.033,176.656 204.603,176.561 213.445 C 176.492 219.805,172.954 225.543,167.937 227.433 C 161.176 229.979,165.932 229.776,109.759 229.906 C 68.843 230.000,58.835 229.923,58.496 229.512 C 58.082 229.010,56.973 222.525,55.946 214.600 C 55.285 209.492,55.278 191.453,55.936 186.600 C 56.204 184.620,56.607 181.560,56.830 179.800 C 64.711 117.737,117.870 64.658,180.000 56.818 C 181.870 56.582,184.930 56.180,186.800 55.924 C 191.256 55.315,209.554 55.343,214.624 55.968 C 244.311 59.623,267.788 69.023,289.576 85.975 C 297.580 92.203,308.426 102.879,313.522 109.547 C 320.427 118.582,324.327 124.414,327.599 130.600 C 328.529 132.360,329.796 134.700,330.412 135.800 C 331.029 136.900,332.026 139.060,332.629 140.600 C 333.232 142.140,333.858 143.580,334.019 143.800 C 335.466 145.775,340.551 161.460,342.058 168.600 C 342.291 169.700,342.638 171.320,342.829 172.200 C 345.353 183.787,346.328 205.104,344.823 215.800 C 342.879 229.608,341.341 236.731,338.316 245.925 C 336.671 250.927,335.881 250.588,349.011 250.509 C 361.521 250.434,360.559 250.638,361.352 247.893 C 368.901 221.780,370.320 188.376,364.798 166.800 C 364.601 166.030,364.054 163.690,363.583 161.600 C 362.869 158.430,360.890 151.261,359.609 147.200 C 359.305 146.235,358.270 143.451,357.602 141.800 C 357.424 141.360,356.866 139.920,356.363 138.600 C 346.886 113.738,326.942 86.619,306.059 70.198 C 304.662 69.099,302.592 67.467,301.459 66.571 C 299.562 65.070,294.175 61.380,288.800 57.901 C 285.943 56.051,276.530 50.866,273.200 49.307 C 265.328 45.622,265.222 45.579,256.413 42.406 C 235.665 34.933,207.531 31.204,187.000 33.206 M216.800 34.242 C 230.643 35.572,242.000 38.041,255.270 42.605 C 258.059 43.564,260.885 44.630,261.550 44.974 C 262.216 45.318,262.980 45.600,263.249 45.600 C 263.517 45.600,264.831 46.119,266.168 46.753 C 267.506 47.388,269.950 48.510,271.600 49.247 C 274.594 50.586,286.176 56.878,288.286 58.313 C 288.899 58.729,291.020 60.119,293.000 61.400 C 311.489 73.368,330.710 93.074,341.791 111.423 C 342.846 113.170,344.018 115.050,344.395 115.600 C 350.389 124.343,359.348 146.243,362.723 160.400 C 366.969 178.215,368.728 202.238,366.866 217.000 C 365.315 229.294,362.325 243.915,360.341 248.900 L 359.903 250.000 349.139 250.000 C 336.520 250.000,337.484 250.556,339.393 244.381 C 341.483 237.625,341.467 237.680,342.347 234.000 C 343.301 230.005,344.532 223.025,345.273 217.400 C 345.992 211.946,345.987 189.269,345.266 183.600 C 344.533 177.837,342.950 169.214,341.962 165.600 C 341.510 163.950,340.991 161.970,340.807 161.200 C 339.227 154.562,333.836 140.842,330.083 133.901 C 329.220 132.306,327.832 129.740,326.999 128.200 C 326.166 126.660,325.271 125.130,325.010 124.800 C 324.749 124.470,324.066 123.376,323.491 122.369 C 322.488 120.609,316.465 112.038,315.362 110.800 C 315.068 110.470,313.156 108.227,311.114 105.815 C 300.624 93.428,288.637 83.409,273.400 74.290 C 266.101 69.922,251.942 63.715,243.600 61.227 C 238.019 59.562,237.341 59.372,235.000 58.821 C 233.900 58.562,232.370 58.183,231.600 57.980 C 230.074 57.577,222.427 56.343,216.400 55.527 C 211.262 54.832,190.375 54.829,184.800 55.523 C 163.187 58.214,142.389 65.091,126.800 74.700 C 125.810 75.310,124.395 76.167,123.656 76.605 C 107.288 86.289,85.060 108.416,77.049 123.000 C 76.686 123.660,75.651 125.370,74.749 126.800 C 72.538 130.304,66.838 141.795,65.225 146.000 C 63.406 150.742,62.526 153.170,62.037 154.800 C 61.806 155.570,61.278 157.280,60.862 158.600 C 59.627 162.525,58.855 165.638,57.410 172.520 C 53.525 191.020,54.406 228.048,58.787 230.393 C 60.539 231.331,158.784 230.703,162.800 229.729 C 171.721 227.564,175.719 223.595,177.028 215.600 C 178.834 204.574,176.678 203.785,143.750 203.423 C 117.690 203.136,113.806 202.682,106.400 199.062 C 95.710 193.837,93.599 184.896,99.108 168.181 C 105.665 148.287,117.576 139.127,141.000 135.967 C 146.137 135.274,220.402 134.956,220.815 135.625 C 221.155 136.175,220.770 137.796,218.090 147.098 C 216.996 150.891,215.883 154.259,215.615 154.581 C 215.197 155.086,210.233 155.187,179.865 155.306 C 140.610 155.460,141.335 155.411,135.176 158.281 C 125.847 162.628,121.168 176.543,127.548 180.964 C 131.667 183.819,131.624 183.814,153.600 183.671 C 191.269 183.425,199.632 185.216,204.167 194.499 C 209.284 204.976,202.582 227.496,191.154 238.222 C 189.158 240.096,184.364 243.600,183.797 243.600 C 183.661 243.600,182.436 244.129,181.075 244.775 C 177.874 246.295,173.338 247.743,169.141 248.586 C 167.303 248.955,165.080 249.459,164.200 249.706 C 162.546 250.171,43.538 250.668,41.735 250.218 C 40.793 249.983,40.010 247.925,38.457 241.600 C 22.233 175.517,46.018 107.880,99.800 67.162 C 133.386 41.733,174.470 30.174,216.800 34.242 M284.575 134.750 C 282.923 135.757,280.709 138.433,274.273 147.200 C 271.285 151.270,267.921 155.770,266.797 157.200 C 265.674 158.630,263.642 161.330,262.282 163.200 C 260.921 165.070,259.593 166.870,259.330 167.200 C 258.795 167.872,257.301 169.853,252.693 176.000 C 250.961 178.310,249.070 180.807,248.489 181.548 C 247.909 182.290,245.219 185.890,242.512 189.548 C 236.979 197.025,233.638 201.477,230.380 205.713 C 229.159 207.301,227.550 209.500,226.806 210.600 C 226.061 211.700,224.585 213.680,223.525 215.000 C 222.017 216.878,209.403 233.708,206.400 237.849 C 206.070 238.304,203.857 241.253,201.483 244.402 C 199.109 247.551,197.221 250.414,197.288 250.764 C 197.397 251.327,198.910 251.412,210.541 251.506 C 225.115 251.623,225.472 251.566,227.400 248.825 C 228.179 247.717,231.239 243.233,239.020 231.800 C 241.115 228.720,243.278 225.750,243.824 225.200 L 244.818 224.200 271.753 224.092 C 294.165 224.002,298.765 224.076,299.143 224.532 C 300.108 225.693,300.982 234.619,301.992 253.600 C 302.232 258.110,302.600 264.320,302.811 267.400 C 305.099 300.846,304.239 303.523,287.059 316.437 C 268.231 330.590,244.126 340.600,221.600 343.622 C 219.950 343.844,217.340 344.210,215.800 344.436 C 211.327 345.094,193.178 345.354,188.600 344.827 C 179.098 343.732,174.404 342.939,166.600 341.107 C 152.726 337.849,136.081 331.073,125.810 324.500 C 104.190 310.665,90.579 297.287,77.944 277.453 C 75.823 274.124,73.878 271.172,73.623 270.894 C 72.783 269.981,48.651 270.388,48.472 271.318 C 48.258 272.433,50.455 276.813,56.138 286.600 C 58.730 291.065,63.089 297.464,66.576 301.922 C 68.349 304.189,70.306 306.707,70.925 307.516 C 80.247 319.712,99.070 335.847,114.400 344.782 C 116.050 345.743,118.217 347.035,119.215 347.652 C 123.547 350.330,135.611 355.710,144.400 358.884 C 145.610 359.321,146.960 359.830,147.400 360.015 C 152.443 362.139,168.977 365.886,179.000 367.178 C 180.980 367.433,183.950 367.837,185.600 368.075 C 189.750 368.676,210.902 368.656,215.400 368.047 C 217.380 367.779,220.260 367.392,221.800 367.187 C 229.292 366.188,233.620 365.349,243.600 362.958 C 246.336 362.302,254.366 359.839,255.900 359.184 C 258.242 358.185,258.718 358.002,260.400 357.456 C 270.925 354.042,289.703 343.727,300.537 335.408 C 302.262 334.084,304.176 332.640,304.791 332.200 C 314.688 325.117,323.903 316.447,328.876 309.539 C 334.101 302.279,334.849 296.386,333.388 273.985 C 332.295 257.217,331.196 244.897,330.000 236.000 C 329.749 234.130,329.375 231.340,329.169 229.800 C 328.562 225.267,328.076 221.972,327.602 219.200 C 327.358 217.770,327.003 215.430,326.813 214.000 C 325.917 207.258,325.567 204.835,325.199 202.800 C 324.980 201.590,324.266 197.336,323.613 193.346 C 322.960 189.356,322.149 184.676,321.811 182.946 C 320.952 178.548,318.757 166.458,317.610 159.800 C 317.420 158.700,316.884 156.000,316.418 153.800 C 315.952 151.600,315.299 148.360,314.968 146.600 C 314.636 144.840,314.205 142.770,314.009 142.000 C 313.814 141.230,313.539 139.700,313.398 138.600 C 312.920 134.863,312.662 134.541,309.915 134.254 C 303.798 133.615,285.861 133.966,284.575 134.750 M311.653 135.300 C 312.032 135.613,312.744 138.342,313.556 142.600 C 314.270 146.340,315.199 151.020,315.621 153.000 C 316.644 157.803,322.414 189.797,324.025 199.600 C 325.818 210.512,325.960 211.422,326.392 214.800 C 326.604 216.450,327.142 220.140,327.589 223.000 C 328.036 225.860,328.665 230.540,328.987 233.400 C 329.308 236.260,329.925 241.660,330.358 245.400 C 331.826 258.091,333.600 283.687,333.600 292.179 C 333.600 305.533,326.824 314.663,304.000 332.064 C 261.502 364.464,212.051 375.199,160.800 363.150 C 139.590 358.164,113.849 345.878,98.947 333.630 C 98.258 333.063,96.659 331.790,95.394 330.800 C 92.265 328.351,83.853 320.795,81.400 318.229 C 78.943 315.658,73.224 309.345,72.173 308.043 C 71.748 307.517,70.931 306.527,70.358 305.843 C 62.915 296.968,49.200 274.940,49.200 271.860 C 49.200 271.261,50.314 271.200,61.197 271.200 L 73.194 271.200 75.062 274.100 C 80.571 282.650,82.345 285.289,84.541 288.200 C 85.868 289.960,87.062 291.490,87.195 291.600 C 87.327 291.710,88.715 293.330,90.280 295.200 C 115.525 325.362,155.075 344.346,195.800 345.849 C 225.150 346.932,255.542 338.204,281.400 321.265 C 284.802 319.037,293.905 311.969,296.000 309.929 C 305.046 301.121,305.727 295.803,302.806 256.779 C 302.583 253.798,302.401 250.108,302.402 248.579 C 302.406 242.484,300.711 226.158,299.898 224.461 L 299.389 223.400 272.121 223.400 L 244.852 223.400 243.681 224.522 C 243.038 225.139,239.561 229.974,235.955 235.267 C 227.046 248.348,226.207 249.472,224.833 250.183 C 223.431 250.908,198.000 251.130,198.000 250.417 C 198.000 250.207,199.320 248.272,200.933 246.117 C 205.495 240.026,223.724 215.694,228.892 208.800 C 231.447 205.390,234.677 201.103,236.069 199.273 C 237.461 197.444,238.870 195.548,239.200 195.060 C 239.530 194.572,241.960 191.323,244.600 187.839 C 247.240 184.355,249.754 181.031,250.186 180.453 C 250.619 179.874,254.939 174.118,259.786 167.662 C 264.634 161.206,268.870 155.524,269.200 155.036 C 273.732 148.335,283.799 135.660,284.961 135.190 C 286.388 134.613,310.943 134.714,311.653 135.300 M288.918 160.274 C 288.263 161.113,285.145 165.490,281.990 170.000 C 278.834 174.510,275.790 178.850,275.226 179.645 C 274.662 180.439,272.760 183.113,271.000 185.588 C 269.240 188.062,267.538 190.472,267.219 190.943 C 266.899 191.414,265.129 193.908,263.286 196.485 C 261.443 199.062,259.995 201.477,260.068 201.851 C 260.177 202.417,291.182 202.914,296.100 202.430 C 296.756 202.365,296.704 201.909,292.827 173.800 C 290.541 157.228,290.744 157.933,288.918 160.274 M290.756 163.700 C 291.020 165.515,291.510 169.070,291.844 171.600 C 292.179 174.130,292.628 177.370,292.842 178.800 C 293.056 180.230,293.410 182.660,293.629 184.200 C 293.848 185.740,294.193 188.170,294.396 189.600 C 295.157 194.955,295.711 199.438,295.755 200.600 L 295.800 201.800 278.300 201.904 C 266.705 201.973,260.800 201.872,260.800 201.604 C 260.800 201.266,263.561 197.174,267.000 192.415 C 267.440 191.806,268.460 190.339,269.268 189.154 C 270.075 187.969,271.571 185.830,272.593 184.400 C 273.614 182.970,275.338 180.540,276.424 179.000 C 277.510 177.460,279.926 174.040,281.793 171.400 C 283.659 168.760,286.135 165.209,287.293 163.509 C 289.936 159.631,290.165 159.644,290.756 163.700 " stroke="none" fill="#5a5667" fill-rule="evenodd"></path><path id="path4" d="M193.600 32.265 C 189.966 32.361,185.814 32.738,178.400 33.648 C 173.288 34.275,159.559 37.066,154.800 38.446 C 117.155 49.358,82.432 74.214,62.107 104.800 C 60.865 106.670,59.739 108.290,59.606 108.400 C 59.473 108.510,58.939 109.320,58.419 110.200 C 56.097 114.130,50.800 123.312,50.800 123.405 C 50.800 123.462,49.615 125.992,48.166 129.026 C 45.224 135.189,44.517 136.894,42.600 142.461 C 41.868 144.585,41.076 146.685,40.838 147.128 C 40.601 147.572,40.147 148.894,39.830 150.067 C 39.513 151.240,38.792 153.758,38.228 155.661 C 37.048 159.647,34.276 173.391,33.642 178.400 C 32.488 187.519,32.301 190.544,32.303 200.000 C 32.308 214.932,33.149 222.355,36.768 239.379 C 38.009 245.216,39.902 251.077,40.637 251.359 C 42.182 251.952,156.206 251.614,161.462 251.001 C 176.171 249.285,186.232 245.110,193.000 237.912 C 197.881 232.721,199.557 230.052,203.428 221.299 C 204.541 218.782,206.420 211.763,206.364 210.328 C 206.345 209.817,205.980 210.840,205.553 212.600 C 200.525 233.359,188.649 245.431,169.510 249.236 C 160.626 251.003,163.860 250.916,101.161 251.076 C 32.861 251.250,40.529 251.779,39.192 246.800 C 27.828 204.485,31.462 164.100,50.007 126.600 C 87.867 50.043,176.846 13.748,256.413 42.406 C 265.222 45.579,265.328 45.622,273.200 49.307 C 276.530 50.866,285.943 56.051,288.800 57.901 C 294.175 61.380,299.562 65.070,301.459 66.571 C 302.592 67.467,304.662 69.099,306.059 70.198 C 326.942 86.619,346.886 113.738,356.363 138.600 C 356.866 139.920,357.424 141.360,357.602 141.800 C 358.270 143.451,359.305 146.235,359.609 147.200 C 360.890 151.261,362.869 158.430,363.583 161.600 C 364.054 163.690,364.601 166.030,364.798 166.800 C 367.671 178.026,368.945 202.915,367.375 217.172 C 366.556 224.612,366.833 225.689,367.793 218.800 C 368.674 212.482,368.848 189.944,368.062 184.000 C 366.626 173.135,365.959 169.451,363.578 159.200 C 361.812 151.600,356.947 137.604,354.021 131.705 C 353.351 130.355,352.174 127.870,351.405 126.183 C 349.916 122.916,346.747 117.157,344.540 113.706 C 343.803 112.555,343.200 111.516,343.200 111.399 C 343.200 110.764,333.886 97.718,331.058 94.391 C 322.452 84.268,316.634 78.370,308.766 71.792 C 303.275 67.202,297.082 62.400,296.652 62.400 C 296.552 62.400,294.486 61.095,292.062 59.500 C 285.828 55.398,275.099 49.200,274.233 49.200 C 274.085 49.200,272.037 48.286,269.682 47.168 C 264.341 44.634,264.192 44.570,262.000 43.847 C 261.010 43.520,258.670 42.689,256.800 42.000 C 249.427 39.283,244.648 37.886,237.730 36.424 C 234.689 35.781,231.390 35.075,230.400 34.854 C 228.571 34.446,221.686 33.552,214.800 32.829 C 210.684 32.397,199.700 32.105,193.600 32.265 M197.913 55.495 C 199.076 55.576,200.876 55.576,201.913 55.493 C 202.951 55.411,202.000 55.345,199.800 55.346 C 197.600 55.347,196.751 55.414,197.913 55.495 M186.800 56.000 C 184.809 56.419,188.455 56.430,191.800 56.015 L 194.200 55.718 191.200 55.711 C 189.550 55.708,187.570 55.838,186.800 56.000 M209.200 56.014 C 210.630 56.175,212.700 56.307,213.800 56.307 L 215.800 56.308 214.200 55.977 C 213.320 55.795,211.250 55.663,209.600 55.684 L 206.600 55.722 209.200 56.014 M178.200 57.012 C 143.128 62.720,113.032 79.648,89.564 106.870 C 77.493 120.871,67.724 138.874,61.494 158.600 C 59.397 165.240,56.314 180.136,56.428 183.077 C 56.482 184.456,57.141 182.328,57.172 180.677 C 57.187 179.840,57.366 178.400,57.568 177.477 C 57.770 176.555,58.140 174.720,58.389 173.400 C 61.652 156.145,68.704 138.340,78.310 123.108 C 81.671 117.777,82.271 116.948,87.180 110.848 C 88.841 108.784,90.765 106.354,91.455 105.448 C 94.018 102.082,105.205 91.459,111.000 86.889 C 130.942 71.161,156.574 60.251,180.753 57.200 C 182.377 56.995,183.802 56.731,183.920 56.613 C 184.264 56.269,181.646 56.452,178.200 57.012 M218.600 56.851 C 219.700 57.048,221.770 57.397,223.200 57.628 C 240.691 60.453,261.802 68.108,274.400 76.194 C 275.170 76.688,277.420 78.136,279.400 79.410 C 293.982 88.798,307.982 102.251,318.322 116.811 C 322.988 123.381,325.006 126.686,329.180 134.600 C 329.760 135.700,330.434 136.960,330.677 137.400 C 331.292 138.510,334.123 145.149,335.622 148.994 C 337.650 154.199,339.075 158.746,340.395 164.233 C 342.586 173.335,343.139 176.107,343.811 181.337 C 343.948 182.402,344.157 183.177,344.274 183.059 C 344.540 182.794,343.753 176.836,342.920 172.800 C 342.580 171.150,342.212 169.350,342.103 168.800 C 340.832 162.395,335.439 145.707,334.023 143.800 C 333.859 143.580,333.232 142.140,332.629 140.600 C 332.026 139.060,331.029 136.900,330.412 135.800 C 329.796 134.700,328.529 132.360,327.599 130.600 C 324.327 124.414,320.427 118.582,313.522 109.547 C 293.655 83.554,260.396 63.856,225.845 57.619 C 222.130 56.949,218.530 56.421,217.845 56.447 C 216.899 56.483,217.080 56.580,218.600 56.851 M290.700 133.899 C 293.395 133.968,297.805 133.968,300.500 133.899 C 303.195 133.830,300.990 133.773,295.600 133.773 C 290.210 133.773,288.005 133.830,290.700 133.899 M145.000 134.429 C 137.758 135.158,128.976 137.037,123.923 138.939 C 110.913 143.837,103.657 151.767,98.404 166.829 C 91.600 186.337,94.798 196.429,109.400 201.531 C 117.613 204.400,121.965 204.792,145.656 204.797 C 174.964 204.802,176.340 205.213,175.920 213.836 C 175.477 222.952,170.275 227.690,159.071 229.183 C 157.046 229.453,138.820 229.600,107.411 229.600 L 58.880 229.600 58.464 227.700 C 58.235 226.655,57.936 225.107,57.798 224.259 C 57.661 223.412,57.444 222.823,57.316 222.951 C 56.936 223.331,58.070 229.160,58.611 229.609 C 58.951 229.891,75.293 229.986,109.855 229.906 C 165.920 229.776,161.177 229.978,167.937 227.433 C 172.954 225.543,176.492 219.805,176.561 213.445 C 176.656 204.603,174.637 204.033,143.170 204.013 C 121.710 203.999,118.683 203.783,111.751 201.774 C 96.012 197.214,92.128 187.379,98.492 168.200 C 105.374 147.460,118.151 137.874,142.498 135.185 C 149.540 134.407,220.510 134.168,221.262 134.919 C 221.954 135.611,221.757 136.925,220.207 141.939 C 219.843 143.116,219.632 144.166,219.739 144.272 C 219.962 144.496,221.811 138.535,222.225 136.256 C 222.429 135.135,222.354 134.617,221.953 134.362 C 221.262 133.925,149.387 133.987,145.000 134.429 M283.060 135.700 C 281.918 136.847,281.828 136.994,282.783 136.152 C 283.562 135.466,284.560 134.706,285.000 134.464 C 285.440 134.222,285.565 134.019,285.277 134.012 C 284.989 134.005,283.991 134.765,283.060 135.700 M309.905 134.283 C 310.402 134.379,311.122 134.375,311.505 134.275 C 311.887 134.175,311.480 134.096,310.600 134.101 C 309.720 134.105,309.407 134.187,309.905 134.283 M312.630 135.000 C 312.787 135.440,313.047 136.520,313.208 137.400 L 313.500 139.000 313.536 137.600 C 313.556 136.830,313.296 135.750,312.958 135.200 C 312.561 134.553,312.445 134.482,312.630 135.000 M313.628 140.033 C 313.644 140.565,313.819 141.360,314.019 141.800 C 314.271 142.358,314.307 142.115,314.138 141.000 C 313.855 139.143,313.587 138.636,313.628 140.033 M278.744 140.700 C 277.593 142.089,277.106 142.800,277.304 142.800 C 277.414 142.800,277.986 142.170,278.573 141.400 C 279.663 139.971,279.795 139.432,278.744 140.700 M276.344 143.900 C 275.193 145.289,274.706 146.000,274.904 146.000 C 275.014 146.000,275.586 145.370,276.173 144.600 C 277.263 143.171,277.395 142.632,276.344 143.900 M218.198 148.901 C 217.573 151.156,216.819 153.585,216.525 154.300 L 215.989 155.600 182.695 155.630 C 164.383 155.646,148.590 155.803,147.600 155.980 C 146.610 156.156,161.208 156.322,180.040 156.350 C 203.217 156.384,214.673 156.263,215.495 155.977 C 216.874 155.496,217.375 154.393,218.809 148.680 C 220.044 143.762,219.578 143.930,218.198 148.901 M272.149 149.500 C 270.886 151.205,269.684 152.825,269.477 153.100 C 269.271 153.375,269.197 153.600,269.314 153.600 C 269.430 153.600,270.149 152.745,270.912 151.700 C 271.674 150.655,272.862 149.035,273.552 148.100 C 274.241 147.165,274.724 146.400,274.625 146.400 C 274.526 146.400,273.412 147.795,272.149 149.500 M315.862 151.000 C 315.996 151.880,316.172 152.675,316.253 152.767 C 316.556 153.110,316.329 150.968,315.981 150.200 C 315.729 149.642,315.693 149.885,315.862 151.000 M266.800 156.684 C 265.590 158.154,264.281 159.907,263.892 160.579 C 263.214 161.747,263.214 161.760,263.892 160.882 C 264.281 160.378,265.635 158.696,266.900 157.146 C 268.980 154.597,269.406 153.989,269.100 154.005 C 269.045 154.008,268.010 155.214,266.800 156.684 M141.600 156.800 C 140.813 157.309,142.216 157.309,143.400 156.800 C 144.133 156.485,144.116 156.454,143.200 156.434 C 142.650 156.422,141.930 156.587,141.600 156.800 M137.067 158.178 C 130.704 160.794,123.891 169.768,125.305 173.670 C 125.411 173.961,125.629 173.480,125.790 172.600 C 126.972 166.135,134.435 158.050,139.274 157.994 C 139.563 157.991,140.070 157.813,140.400 157.600 C 141.603 156.822,139.460 157.194,137.067 158.178 M317.482 159.221 C 317.608 160.199,317.775 161.075,317.855 161.167 C 318.181 161.542,317.960 158.555,317.621 158.021 C 317.384 157.646,317.335 158.070,317.482 159.221 M288.832 161.300 C 288.311 162.136,288.321 162.159,288.966 161.626 C 289.570 161.127,289.709 161.127,290.024 161.626 C 290.305 162.069,290.389 161.995,290.394 161.300 C 290.397 160.805,290.173 160.400,289.896 160.400 C 289.619 160.400,289.140 160.805,288.832 161.300 M290.406 164.233 C 290.409 165.095,290.588 166.070,290.803 166.400 C 291.070 166.810,291.114 166.365,290.941 165.000 C 290.625 162.505,290.398 162.181,290.406 164.233 M261.196 164.097 C 260.267 165.494,259.849 166.248,260.252 165.800 C 262.015 163.840,262.486 163.200,262.166 163.200 C 261.961 163.200,261.524 163.604,261.196 164.097 M284.400 167.600 C 283.703 168.480,283.223 169.200,283.333 169.200 C 283.443 169.200,284.103 168.480,284.800 167.600 C 285.497 166.720,285.977 166.000,285.867 166.000 C 285.757 166.000,285.097 166.720,284.400 167.600 M257.658 168.808 C 256.774 170.133,256.216 171.113,256.420 170.988 C 256.623 170.862,257.365 169.913,258.068 168.880 C 258.772 167.846,259.539 166.868,259.774 166.706 C 260.065 166.505,260.052 166.410,259.733 166.406 C 259.476 166.403,258.543 167.484,257.658 168.808 M291.228 169.433 C 291.244 170.295,291.409 171.360,291.596 171.800 C 291.808 172.298,291.851 171.769,291.712 170.400 C 291.444 167.765,291.189 167.257,291.228 169.433 M281.055 172.500 C 280.018 174.095,279.671 174.809,280.284 174.086 C 281.365 172.814,283.369 169.600,283.083 169.600 C 283.005 169.600,282.092 170.905,281.055 172.500 M254.177 173.500 C 252.054 176.154,251.877 176.400,252.092 176.400 C 252.196 176.400,253.130 175.320,254.168 174.000 C 255.205 172.680,255.973 171.600,255.875 171.600 C 255.777 171.600,255.012 172.455,254.177 173.500 M292.006 175.633 C 292.009 176.165,292.189 176.870,292.406 177.200 C 292.682 177.622,292.723 177.385,292.542 176.400 C 292.225 174.675,291.998 174.349,292.006 175.633 M278.344 176.300 C 277.193 177.689,276.706 178.400,276.904 178.400 C 277.014 178.400,277.586 177.770,278.173 177.000 C 279.263 175.571,279.395 175.032,278.344 176.300 M125.233 176.709 C 125.178 178.236,128.002 180.888,130.866 181.998 L 133.400 182.981 158.800 183.224 C 184.857 183.474,186.758 183.586,192.788 185.231 C 199.636 187.098,204.593 191.658,206.020 197.400 L 206.318 198.600 206.359 197.341 C 206.463 194.150,202.241 188.906,197.561 186.411 C 191.483 183.172,186.221 182.684,156.800 182.632 C 129.511 182.584,128.131 182.336,125.813 177.050 C 125.333 175.953,125.261 175.912,125.233 176.709 M292.806 181.033 C 292.809 181.455,292.995 182.070,293.218 182.400 C 293.515 182.838,293.552 182.676,293.356 181.800 C 293.027 180.329,292.798 180.010,292.806 181.033 M247.074 182.833 C 246.455 183.695,246.028 184.400,246.127 184.400 C 246.403 184.400,248.499 181.566,248.340 181.407 C 248.263 181.330,247.693 181.972,247.074 182.833 M274.504 181.700 C 273.248 183.293,271.198 186.448,271.568 186.220 C 272.043 185.926,275.335 181.200,275.064 181.200 C 274.973 181.200,274.721 181.425,274.504 181.700 M344.504 186.000 C 344.499 187.430,344.632 189.140,344.800 189.800 C 345.232 191.497,345.243 188.684,344.817 185.600 L 344.513 183.400 344.504 186.000 M55.903 187.200 C 55.740 188.410,55.629 190.480,55.655 191.800 L 55.704 194.200 56.061 191.200 C 56.257 189.550,56.368 187.480,56.309 186.600 C 56.205 185.068,56.187 185.093,55.903 187.200 M270.093 187.900 C 269.057 189.396,268.721 190.000,268.923 190.000 C 269.017 190.000,269.570 189.280,270.153 188.400 C 271.336 186.612,271.284 186.179,270.093 187.900 M323.168 190.700 C 323.359 192.081,323.387 192.109,323.519 191.051 C 323.598 190.419,323.505 189.745,323.312 189.552 C 323.110 189.350,323.049 189.840,323.168 190.700 M267.923 191.100 C 267.218 191.921,266.690 192.800,266.901 192.800 C 266.983 192.800,267.449 192.260,267.937 191.600 C 268.901 190.296,268.892 189.972,267.923 191.100 M294.480 192.200 C 294.480 192.640,294.624 193.450,294.800 194.000 C 295.054 194.792,295.120 194.833,295.120 194.200 C 295.120 193.760,294.976 192.950,294.800 192.400 C 294.546 191.608,294.480 191.567,294.480 192.200 M239.544 193.100 C 238.393 194.489,237.906 195.200,238.104 195.200 C 238.214 195.200,238.786 194.570,239.373 193.800 C 240.463 192.371,240.595 191.832,239.544 193.100 M345.370 200.800 C 345.370 205.530,345.428 207.465,345.498 205.100 C 345.569 202.735,345.569 198.865,345.498 196.500 C 345.428 194.135,345.370 196.070,345.370 200.800 M323.868 195.000 C 324.171 196.977,324.402 197.314,324.394 195.767 C 324.391 195.125,324.216 194.330,324.005 194.000 C 323.745 193.591,323.701 193.910,323.868 195.000 M55.358 200.600 C 55.358 203.680,55.421 204.887,55.497 203.282 C 55.573 201.678,55.573 199.158,55.496 197.682 C 55.419 196.207,55.357 197.520,55.358 200.600 M236.400 197.300 C 234.736 199.421,234.305 200.164,235.520 198.819 C 236.677 197.539,238.107 195.600,237.894 195.600 C 237.806 195.600,237.134 196.365,236.400 197.300 M295.320 199.400 L 295.400 201.400 278.300 201.504 C 268.895 201.562,261.200 201.499,261.200 201.366 C 261.200 201.233,261.575 200.556,262.033 199.862 L 262.866 198.600 261.835 199.800 C 259.879 202.077,259.307 202.000,278.213 202.000 C 297.615 202.000,296.376 202.204,295.650 199.133 L 295.241 197.400 295.320 199.400 M324.696 199.846 C 324.812 200.921,324.972 201.875,325.053 201.967 C 325.372 202.329,325.165 198.965,324.837 198.446 C 324.622 198.107,324.568 198.651,324.696 199.846 M206.576 204.040 C 206.573 206.988,206.690 208.860,206.837 208.200 C 207.187 206.635,207.196 200.872,206.852 199.640 C 206.704 199.113,206.580 201.093,206.576 204.040 M233.344 201.300 C 232.906 201.795,232.251 202.650,231.887 203.200 C 231.524 203.750,230.839 204.740,230.365 205.400 C 229.871 206.088,230.115 205.917,230.937 205.000 C 231.725 204.120,232.377 203.279,232.385 203.131 C 232.393 202.983,232.866 202.308,233.436 201.631 C 234.622 200.220,234.545 199.942,233.344 201.300 M325.466 204.400 C 325.601 205.610,325.777 206.675,325.856 206.767 C 326.194 207.158,325.952 203.344,325.604 202.800 C 325.348 202.399,325.302 202.930,325.466 204.400 M326.093 208.600 C 326.094 209.260,326.232 210.340,326.400 211.000 C 326.823 212.663,326.842 211.026,326.423 209.000 C 326.145 207.655,326.092 207.591,326.093 208.600 M55.673 210.400 C 55.658 211.610,55.795 213.320,55.977 214.200 L 56.308 215.800 56.324 213.800 C 56.333 212.700,56.197 210.990,56.020 210.000 L 55.700 208.200 55.673 210.400 M344.627 212.438 C 344.457 214.109,344.395 215.819,344.490 216.238 C 344.585 216.657,344.802 215.633,344.973 213.962 C 345.143 212.291,345.205 210.581,345.110 210.162 C 345.015 209.743,344.798 210.767,344.627 212.438 M226.073 211.000 C 225.822 211.550,225.683 212.000,225.763 212.000 C 225.843 212.000,226.203 211.550,226.563 211.000 C 226.924 210.450,227.063 210.000,226.873 210.000 C 226.684 210.000,226.323 210.450,226.073 211.000 M223.400 214.521 C 220.837 217.846,218.741 220.800,218.944 220.800 C 219.047 220.800,219.814 219.855,220.648 218.700 C 221.483 217.545,222.960 215.655,223.931 214.500 C 224.902 213.345,225.540 212.410,225.349 212.423 C 225.157 212.435,224.280 213.380,223.400 214.521 M326.840 214.433 C 326.862 215.185,327.030 216.250,327.213 216.800 C 327.429 217.446,327.466 217.020,327.319 215.600 C 327.059 213.083,326.781 212.407,326.840 214.433 M56.470 218.200 C 56.457 218.860,56.595 220.120,56.777 221.000 L 57.108 222.600 57.107 221.000 C 57.106 220.120,56.968 218.860,56.800 218.200 L 56.495 217.000 56.470 218.200 M343.859 219.600 C 342.721 226.720,342.749 226.570,341.556 232.000 C 340.605 236.327,339.113 241.866,337.818 245.871 C 336.382 250.316,336.464 250.840,338.580 250.746 C 339.666 250.697,339.691 250.671,338.800 250.512 C 337.085 250.204,337.042 249.797,338.316 245.925 C 341.187 237.199,344.791 220.688,344.302 218.498 C 344.217 218.114,344.017 218.610,343.859 219.600 M215.830 224.636 C 214.349 226.525,213.206 228.139,213.289 228.223 C 213.372 228.306,214.421 227.078,215.620 225.495 C 218.714 221.411,218.864 221.200,218.683 221.200 C 218.594 221.200,217.310 222.746,215.830 224.636 M258.929 224.300 C 266.370 224.361,278.430 224.361,285.729 224.300 C 293.028 224.239,286.940 224.189,272.200 224.189 C 257.460 224.189,251.488 224.239,258.929 224.300 M328.428 225.033 C 328.444 225.675,328.616 226.560,328.810 227.000 C 329.047 227.534,329.086 227.202,328.927 226.000 C 328.646 223.880,328.388 223.380,328.428 225.033 M243.400 225.600 C 242.768 226.260,242.419 226.790,242.625 226.778 C 242.978 226.757,245.039 224.400,244.705 224.400 C 244.620 224.400,244.032 224.940,243.400 225.600 M366.196 226.500 C 365.794 229.526,364.197 237.155,362.994 241.800 C 361.065 249.242,360.778 250.032,359.864 250.401 C 359.222 250.660,359.173 250.756,359.671 250.775 C 360.196 250.794,361.600 249.845,361.600 249.470 C 361.600 249.430,361.966 248.138,362.413 246.599 C 364.150 240.623,367.271 224.400,366.684 224.400 C 366.569 224.400,366.349 225.345,366.196 226.500 M241.093 228.803 C 240.518 229.681,240.171 230.398,240.324 230.395 C 240.678 230.389,242.510 227.577,242.298 227.365 C 242.210 227.277,241.668 227.924,241.093 228.803 M300.109 230.000 C 300.109 230.990,300.187 231.395,300.282 230.900 C 300.378 230.405,300.378 229.595,300.282 229.100 C 300.187 228.605,300.109 229.010,300.109 230.000 M329.293 230.800 C 329.293 231.570,329.375 231.885,329.476 231.500 C 329.576 231.115,329.576 230.485,329.476 230.100 C 329.375 229.715,329.293 230.030,329.293 230.800 M209.131 233.563 C 208.012 234.877,205.824 238.222,206.490 237.600 C 206.951 237.170,210.759 232.000,210.615 232.000 C 210.531 232.000,209.863 232.704,209.131 233.563 M236.606 235.488 L 235.904 236.600 236.830 235.711 C 237.339 235.222,237.655 234.722,237.532 234.599 C 237.409 234.476,236.992 234.876,236.606 235.488 M330.095 236.800 C 330.095 237.350,330.232 238.340,330.400 239.000 C 330.672 240.070,330.705 240.092,330.705 239.200 C 330.705 238.650,330.568 237.660,330.400 237.000 C 330.128 235.930,330.095 235.908,330.095 236.800 M234.302 238.700 C 232.868 240.695,230.805 243.782,230.225 244.800 C 229.337 246.357,230.930 244.263,233.343 240.700 C 236.078 236.662,236.701 235.363,234.302 238.700 M300.924 239.800 C 300.926 241.120,301.001 241.612,301.090 240.893 C 301.179 240.174,301.177 239.094,301.086 238.493 C 300.995 237.892,300.922 238.480,300.924 239.800 M203.329 241.300 C 202.427 242.302,201.860 243.200,202.129 243.200 C 202.226 243.200,202.786 242.570,203.373 241.800 C 204.577 240.221,204.553 239.941,203.329 241.300 M330.901 243.000 C 330.905 243.880,330.987 244.193,331.083 243.695 C 331.179 243.198,331.175 242.478,331.075 242.095 C 330.975 241.713,330.896 242.120,330.901 243.000 M301.293 243.600 C 301.293 244.370,301.375 244.685,301.476 244.300 C 301.576 243.915,301.576 243.285,301.476 242.900 C 301.375 242.515,301.293 242.830,301.293 243.600 M200.541 245.100 C 199.936 245.925,199.162 246.946,198.821 247.369 C 198.479 247.792,198.408 248.016,198.663 247.868 C 199.171 247.573,202.109 243.600,201.820 243.600 C 201.721 243.600,201.146 244.275,200.541 245.100 M331.293 246.000 C 331.293 246.770,331.375 247.085,331.476 246.700 C 331.576 246.315,331.576 245.685,331.476 245.300 C 331.375 244.915,331.293 245.230,331.293 246.000 M301.320 248.400 C 301.320 249.610,301.395 250.105,301.487 249.500 C 301.578 248.895,301.578 247.905,301.487 247.300 C 301.395 246.695,301.320 247.190,301.320 248.400 M228.344 247.500 C 227.075 249.032,226.619 249.742,227.081 249.465 C 227.593 249.158,229.369 246.800,229.089 246.800 C 228.998 246.800,228.663 247.115,228.344 247.500 M197.423 249.289 C 196.707 250.311,196.628 251.046,197.195 251.397 C 197.423 251.538,197.489 251.376,197.351 251.018 C 197.220 250.675,197.406 249.945,197.765 249.397 C 198.575 248.162,198.278 248.068,197.423 249.289 M345.491 250.689 C 346.201 250.777,347.461 250.779,348.291 250.692 C 349.121 250.605,348.540 250.533,347.000 250.531 C 345.460 250.529,344.781 250.600,345.491 250.689 M354.311 250.693 C 355.251 250.778,356.691 250.777,357.511 250.691 C 358.330 250.605,357.560 250.536,355.800 250.537 C 354.040 250.539,353.370 250.609,354.311 250.693 M301.728 253.200 C 301.728 254.630,301.801 255.215,301.889 254.500 C 301.978 253.785,301.978 252.615,301.889 251.900 C 301.801 251.185,301.728 251.770,301.728 253.200 M198.900 251.876 C 199.285 251.976,199.915 251.976,200.300 251.876 C 200.685 251.775,200.370 251.693,199.600 251.693 C 198.830 251.693,198.515 251.775,198.900 251.876 M332.131 255.000 C 332.133 256.540,332.205 257.121,332.292 256.291 C 332.379 255.461,332.377 254.201,332.289 253.491 C 332.200 252.781,332.129 253.460,332.131 255.000 M302.035 260.433 C 302.054 262.505,302.207 265.100,302.375 266.200 C 302.552 267.364,302.598 265.860,302.485 262.600 C 302.261 256.182,301.983 254.842,302.035 260.433 M332.514 260.600 C 332.517 261.700,332.595 262.103,332.687 261.495 C 332.779 260.886,332.777 259.986,332.682 259.495 C 332.587 259.003,332.511 259.500,332.514 260.600 M333.331 271.400 C 333.333 272.940,333.405 273.521,333.492 272.691 C 333.579 271.861,333.577 270.601,333.489 269.891 C 333.400 269.181,333.329 269.860,333.331 271.400 M48.480 270.480 C 48.216 270.744,48.018 271.329,48.040 271.780 C 48.073 272.467,48.125 272.438,48.358 271.600 L 48.636 270.600 61.080 270.600 C 67.924 270.600,73.440 270.465,73.338 270.300 C 73.007 269.764,49.022 269.938,48.480 270.480 M302.942 273.400 C 302.941 275.380,303.008 276.240,303.092 275.312 C 303.176 274.384,303.177 272.764,303.095 271.712 C 303.012 270.660,302.943 271.420,302.942 273.400 M74.000 271.009 C 74.000 271.396,76.411 275.200,76.656 275.200 C 76.888 275.200,76.170 273.886,74.978 272.130 C 74.440 271.337,74.000 270.833,74.000 271.009 M77.291 276.500 C 77.612 276.995,78.656 278.660,79.612 280.200 C 81.115 282.621,83.691 286.107,84.933 287.400 C 85.753 288.254,84.615 286.539,83.207 284.800 C 82.406 283.810,80.711 281.335,79.439 279.300 C 78.168 277.265,77.034 275.600,76.918 275.600 C 76.803 275.600,76.970 276.005,77.291 276.500 M303.301 278.600 C 303.305 279.480,303.387 279.793,303.483 279.295 C 303.579 278.798,303.575 278.078,303.475 277.695 C 303.375 277.313,303.296 277.720,303.301 278.600 M50.801 277.688 C 50.800 278.047,54.861 285.200,55.066 285.200 C 55.149 285.200,54.859 284.499,54.422 283.643 C 53.313 281.469,50.802 277.340,50.801 277.688 M334.086 289.400 C 334.033 293.800,333.896 297.850,333.783 298.400 L 333.577 299.400 333.997 298.443 C 334.257 297.849,334.372 294.442,334.299 289.443 L 334.182 281.400 334.086 289.400 M303.734 287.600 C 303.734 289.250,303.805 289.925,303.891 289.100 C 303.978 288.275,303.978 286.925,303.891 286.100 C 303.805 285.275,303.734 285.950,303.734 287.600 M89.405 293.300 C 90.476 294.565,91.421 295.600,91.504 295.600 C 91.827 295.600,90.005 293.338,88.765 292.200 C 87.925 291.429,88.154 291.823,89.405 293.300 M303.018 295.018 C 302.865 296.039,302.822 296.955,302.922 297.055 C 303.022 297.155,303.229 296.402,303.382 295.382 C 303.535 294.361,303.578 293.445,303.478 293.345 C 303.378 293.245,303.171 293.998,303.018 295.018 M92.800 297.190 C 92.800 297.311,95.320 299.926,98.400 303.000 C 101.480 306.074,104.000 308.495,104.000 308.379 C 104.000 308.263,101.480 305.648,98.400 302.568 C 95.320 299.488,92.800 297.068,92.800 297.190 M63.991 299.188 C 64.457 299.841,65.042 300.502,65.291 300.656 C 65.541 300.811,65.241 300.276,64.625 299.468 C 63.288 297.715,62.784 297.492,63.991 299.188 M67.472 303.657 C 68.532 305.118,69.739 306.530,70.154 306.794 C 70.569 307.058,70.176 306.403,69.281 305.337 C 66.027 301.466,65.581 301.052,67.472 303.657 M298.592 305.645 C 297.716 306.769,296.754 307.948,296.452 308.264 C 296.151 308.580,295.994 308.927,296.103 309.036 C 296.274 309.207,296.902 308.440,299.949 304.339 C 301.186 302.674,300.067 303.751,298.592 305.645 M330.928 306.428 C 330.454 307.292,330.198 308.000,330.359 308.000 C 330.672 308.000,332.118 305.185,331.912 304.978 C 331.844 304.911,331.401 305.563,330.928 306.428 M71.038 308.041 C 71.594 309.025,73.615 311.319,73.777 311.150 C 73.856 311.068,73.190 310.190,72.298 309.200 C 71.406 308.210,70.839 307.688,71.038 308.041 M327.806 311.089 L 326.700 312.600 327.993 311.276 C 328.704 310.548,329.201 309.868,329.098 309.765 C 328.996 309.662,328.414 310.258,327.806 311.089 M107.774 311.493 C 108.640 312.424,109.435 313.099,109.541 312.993 C 109.647 312.887,109.656 312.755,109.562 312.700 C 109.468 312.645,108.673 311.970,107.796 311.201 L 106.200 309.801 107.774 311.493 M288.000 315.258 C 285.470 317.224,282.545 319.380,281.500 320.050 C 280.455 320.720,279.600 321.358,279.600 321.467 C 279.600 321.757,282.435 320.015,283.600 319.009 C 284.150 318.534,286.247 316.938,288.259 315.463 C 291.313 313.224,293.382 311.463,292.749 311.642 C 292.667 311.665,290.530 313.293,288.000 315.258 M325.400 314.000 C 324.768 314.660,324.387 315.200,324.554 315.200 C 324.871 315.200,325.423 314.677,326.349 313.498 C 327.221 312.390,326.658 312.687,325.400 314.000 M80.800 319.000 C 82.881 321.090,84.674 322.800,84.784 322.800 C 84.894 322.800,83.281 321.090,81.200 319.000 C 79.119 316.910,77.326 315.200,77.216 315.200 C 77.106 315.200,78.719 316.910,80.800 319.000 M113.344 315.909 C 113.660 316.421,116.000 318.153,116.000 317.875 C 116.000 317.776,115.339 317.191,114.532 316.575 C 113.724 315.959,113.189 315.659,113.344 315.909 M319.600 320.073 C 317.510 322.074,316.144 323.461,316.564 323.155 C 317.592 322.409,323.853 316.424,323.600 316.430 C 323.490 316.433,321.690 318.072,319.600 320.073 M121.000 321.410 C 122.215 322.395,123.355 322.974,123.023 322.437 C 122.872 322.194,122.176 321.717,121.475 321.378 C 120.291 320.806,120.257 320.808,121.000 321.410 M314.175 324.900 L 313.000 326.200 314.300 325.025 C 315.015 324.379,315.600 323.794,315.600 323.725 C 315.600 323.416,315.270 323.688,314.175 324.900 M88.834 326.300 C 88.852 326.465,89.617 327.222,90.534 327.982 L 92.200 329.363 90.619 327.682 C 88.993 325.952,88.776 325.784,88.834 326.300 M268.200 328.027 C 267.540 328.450,267.144 328.797,267.320 328.798 C 267.760 328.801,270.000 327.624,270.000 327.390 C 270.000 327.042,269.412 327.251,268.200 328.027 M134.033 328.949 C 134.445 329.317,136.800 330.400,136.800 330.221 C 136.800 329.990,134.582 328.800,134.153 328.800 C 133.996 328.800,133.942 328.867,134.033 328.949 M306.593 330.774 C 305.497 331.640,304.060 332.830,303.400 333.419 L 302.200 334.490 303.531 333.445 C 304.263 332.870,304.983 332.392,305.131 332.383 C 305.454 332.362,309.090 329.203,308.793 329.201 C 308.679 329.200,307.689 329.908,306.593 330.774 M263.900 330.229 C 262.405 331.040,262.496 331.378,264.000 330.600 C 264.660 330.259,265.200 329.894,265.200 329.790 C 265.200 329.532,265.157 329.547,263.900 330.229 M93.697 330.633 C 93.827 330.844,94.791 331.632,95.837 332.384 C 96.884 333.135,97.633 333.578,97.503 333.367 C 97.373 333.156,96.409 332.368,95.363 331.616 C 94.316 330.865,93.567 330.422,93.697 330.633 M143.200 333.400 C 143.750 333.714,144.380 333.972,144.600 333.972 C 144.820 333.972,144.550 333.714,144.000 333.400 C 143.450 333.086,142.820 332.828,142.600 332.828 C 142.380 332.828,142.650 333.086,143.200 333.400 M256.000 333.800 C 255.450 334.114,255.180 334.372,255.400 334.372 C 255.620 334.372,256.250 334.114,256.800 333.800 C 257.350 333.486,257.620 333.228,257.400 333.228 C 257.180 333.228,256.550 333.486,256.000 333.800 M147.200 335.000 C 147.750 335.314,148.380 335.572,148.600 335.572 C 148.820 335.572,148.550 335.314,148.000 335.000 C 147.450 334.686,146.820 334.428,146.600 334.428 C 146.380 334.428,146.650 334.686,147.200 335.000 M252.800 335.000 C 251.494 335.747,251.951 335.755,253.654 335.016 C 254.394 334.694,254.730 334.431,254.400 334.430 C 254.070 334.429,253.350 334.686,252.800 335.000 M299.253 336.408 C 297.852 337.504,296.832 338.400,296.987 338.400 C 297.290 338.400,302.000 334.774,302.000 334.541 C 302.000 334.279,301.806 334.411,299.253 336.408 M100.598 335.937 C 101.034 336.452,101.753 337.059,102.196 337.286 C 103.045 337.721,102.921 337.587,101.003 335.994 C 99.848 335.035,99.834 335.033,100.598 335.937 M250.000 336.200 C 249.450 336.514,249.180 336.772,249.400 336.772 C 249.620 336.772,250.250 336.514,250.800 336.200 C 251.350 335.886,251.620 335.628,251.400 335.628 C 251.180 335.628,250.550 335.886,250.000 336.200 M293.618 340.250 C 291.736 341.586,291.571 341.818,293.029 341.077 C 293.705 340.734,294.492 340.171,294.778 339.826 C 295.460 339.005,295.277 339.072,293.618 340.250 M162.000 340.000 C 163.368 340.438,164.419 340.438,163.400 340.000 C 162.960 339.811,162.240 339.662,161.800 339.668 C 161.157 339.677,161.196 339.743,162.000 340.000 M237.600 340.000 C 236.805 340.514,237.804 340.514,239.000 340.000 L 239.800 339.656 239.000 339.634 C 238.560 339.622,237.930 339.787,237.600 340.000 M164.433 340.544 C 164.525 340.623,165.140 340.808,165.800 340.956 C 166.676 341.152,166.838 341.115,166.400 340.818 C 165.860 340.453,164.032 340.198,164.433 340.544 M234.400 340.818 C 233.962 341.115,234.124 341.152,235.000 340.956 C 236.471 340.627,236.790 340.398,235.767 340.406 C 235.345 340.409,234.730 340.595,234.400 340.818 M167.633 341.344 C 167.725 341.423,168.340 341.608,169.000 341.756 C 169.876 341.952,170.038 341.915,169.600 341.618 C 169.060 341.253,167.232 340.998,167.633 341.344 M231.200 341.618 C 230.762 341.915,230.924 341.952,231.800 341.756 C 233.271 341.427,233.590 341.198,232.567 341.206 C 232.145 341.209,231.530 341.395,231.200 341.618 M290.081 342.572 C 288.082 343.985,288.008 344.218,289.897 343.155 C 290.830 342.630,291.595 342.065,291.597 341.900 C 291.601 341.499,291.594 341.502,290.081 342.572 M171.233 342.144 C 171.325 342.223,171.940 342.408,172.600 342.556 C 173.476 342.752,173.638 342.715,173.200 342.418 C 172.660 342.053,170.832 341.798,171.233 342.144 M227.600 342.418 C 227.162 342.715,227.324 342.752,228.200 342.556 C 229.671 342.227,229.990 341.998,228.967 342.006 C 228.545 342.009,227.930 342.195,227.600 342.418 M176.400 343.200 C 177.768 343.638,178.819 343.638,177.800 343.200 C 177.360 343.011,176.640 342.862,176.200 342.868 C 175.557 342.877,175.596 342.943,176.400 343.200 M223.400 343.200 C 222.896 343.417,222.822 343.544,223.200 343.544 C 223.530 343.544,224.160 343.389,224.600 343.200 C 225.104 342.983,225.178 342.856,224.800 342.856 C 224.470 342.856,223.840 343.011,223.400 343.200 M112.200 343.811 C 112.640 344.169,113.540 344.726,114.200 345.050 C 115.322 345.601,115.348 345.597,114.600 344.989 C 114.160 344.631,113.260 344.074,112.600 343.750 C 111.478 343.199,111.452 343.203,112.200 343.811 M181.233 343.744 C 181.325 343.823,181.940 344.008,182.600 344.156 C 183.476 344.352,183.638 344.315,183.200 344.018 C 182.660 343.653,180.832 343.398,181.233 343.744 M285.504 345.342 C 282.552 347.035,282.014 347.594,284.600 346.280 C 286.486 345.322,288.439 344.026,288.000 344.025 C 287.890 344.024,286.767 344.617,285.504 345.342 M210.400 344.820 C 209.726 345.049,210.051 345.084,211.400 344.928 C 212.500 344.801,213.475 344.631,213.567 344.549 C 213.882 344.268,211.399 344.480,210.400 344.820 M115.800 345.890 C 116.020 346.098,117.100 346.759,118.200 347.359 C 119.300 347.959,119.840 348.155,119.400 347.794 C 118.505 347.059,115.173 345.297,115.800 345.890 M279.504 348.760 C 276.047 350.682,275.479 351.260,278.600 349.680 C 280.748 348.592,282.925 347.196,282.400 347.243 C 282.290 347.253,280.987 347.936,279.504 348.760 M121.200 348.998 C 121.200 349.265,126.849 352.085,127.027 351.906 C 127.107 351.827,125.828 351.097,124.186 350.284 C 122.544 349.471,121.200 348.893,121.200 348.998 M128.800 352.596 C 128.800 352.870,131.249 354.084,131.432 353.901 C 131.519 353.814,130.962 353.444,130.195 353.078 C 129.428 352.712,128.800 352.495,128.800 352.596 M270.700 353.029 C 269.149 353.870,269.325 354.161,270.900 353.359 C 272.408 352.593,272.675 352.394,272.167 352.416 C 271.965 352.425,271.305 352.701,270.700 353.029 M135.600 355.814 C 135.600 356.093,138.506 357.231,138.891 357.103 C 139.082 357.039,138.420 356.684,137.419 356.313 C 136.419 355.942,135.600 355.717,135.600 355.814 M245.800 362.400 C 244.693 362.682,244.677 362.709,245.600 362.747 C 246.150 362.769,246.870 362.613,247.200 362.400 C 247.881 361.960,247.529 361.960,245.800 362.400 M156.800 363.182 C 157.130 363.405,157.745 363.591,158.167 363.594 C 159.190 363.602,158.871 363.373,157.400 363.044 C 156.524 362.848,156.362 362.885,156.800 363.182 M242.600 363.200 C 241.493 363.482,241.477 363.509,242.400 363.547 C 242.950 363.569,243.670 363.413,244.000 363.200 C 244.681 362.760,244.329 362.760,242.600 363.200 M239.200 364.000 C 238.396 364.257,238.357 364.323,239.000 364.332 C 239.440 364.338,240.160 364.189,240.600 364.000 C 241.619 363.562,240.568 363.562,239.200 364.000 M165.800 365.200 C 166.240 365.389,166.960 365.538,167.400 365.532 C 168.043 365.523,168.004 365.457,167.200 365.200 C 165.832 364.762,164.781 364.762,165.800 365.200 M175.905 367.083 C 176.402 367.179,177.122 367.175,177.505 367.075 C 177.887 366.975,177.480 366.896,176.600 366.901 C 175.720 366.905,175.407 366.987,175.905 367.083 M223.505 367.083 C 224.002 367.179,224.722 367.175,225.105 367.075 C 225.487 366.975,225.080 366.896,224.200 366.901 C 223.320 366.905,223.007 366.987,223.505 367.083 M181.300 367.887 C 181.905 367.978,182.895 367.978,183.500 367.887 C 184.105 367.795,183.610 367.720,182.400 367.720 C 181.190 367.720,180.695 367.795,181.300 367.887 M217.300 367.887 C 217.905 367.978,218.895 367.978,219.500 367.887 C 220.105 367.795,219.610 367.720,218.400 367.720 C 217.190 367.720,216.695 367.795,217.300 367.887 M186.000 368.440 C 186.550 368.594,189.160 368.717,191.800 368.714 C 194.440 368.710,196.330 368.648,196.000 368.575 C 194.766 368.303,185.041 368.172,186.000 368.440 M209.400 368.400 L 204.600 368.639 209.200 368.672 C 211.730 368.690,214.340 368.568,215.000 368.400 C 216.407 368.042,216.588 368.042,209.400 368.400 " stroke="none" fill="#1e3c55" fill-rule="evenodd"></path></g></svg>